<svg width="25" height="25" viewBox="0 0 25 25" fill="none" xmlns="http://www.w3.org/2000/svg">
<g id="Group">
<path id="Vector" d="M24.2803 11.9697C24.2902 11.9795 24.2998 11.9897 24.309 12H23.191C23.2002 11.9897 23.2098 11.9795 23.2197 11.9697C23.3603 11.829 23.5511 11.75 23.75 11.75C23.9489 11.75 24.1397 11.829 24.2803 11.9697ZM23 13H24.5V21.375H23V13ZM22.8828 22.375H24.452C24.353 22.8851 24.1039 23.3584 23.7312 23.7312C23.3584 24.1039 22.8851 24.353 22.375 24.452V22.8828C22.4834 22.829 22.5833 22.7576 22.6705 22.6705C22.7576 22.5833 22.829 22.4834 22.8828 22.375ZM13.0303 1.78033C13.0205 1.7902 13.0103 1.79976 13 1.80902V0.690981C13.0103 0.700237 13.0205 0.709802 13.0303 0.71967C13.171 0.860322 13.25 1.05109 13.25 1.25C13.25 1.44891 13.171 1.63968 13.0303 1.78033ZM2.3295 22.6705C2.41666 22.7576 2.51663 22.829 2.625 22.8828V24.452C2.1149 24.353 1.64159 24.1039 1.26884 23.7312C0.896097 23.3584 0.647028 22.8851 0.548048 22.375H2.11722C2.17098 22.4834 2.24235 22.5833 2.3295 22.6705ZM21.375 24.5H3.625V23H21.375V24.5ZM2.3295 2.3295C2.24235 2.41666 2.17098 2.51663 2.11722 2.625H0.548048C0.647028 2.1149 0.896097 1.64159 1.26884 1.26884C1.64159 0.896097 2.1149 0.647028 2.625 0.548048V2.11722C2.51663 2.17098 2.41666 2.24235 2.3295 2.3295ZM2 3.625V21.375H0.5V3.625H2ZM12 2H3.625V0.5H12V2Z" fill="#737373" stroke="#737373"/>
<path id="Vector_2" d="M1.25 19.375L7.93313 13.2487C8.15838 13.0423 8.45146 12.9255 8.75697 12.9204C9.06248 12.9154 9.35927 13.0224 9.59125 13.2212L17.5 20M15 16.875L17.9831 13.8919C18.1959 13.679 18.4784 13.55 18.7786 13.5286C19.0789 13.5073 19.3767 13.595 19.6175 13.7756L23.75 16.875M16.25 5H23.75M20 1.25V8.75" stroke="#737373" stroke-width="2" stroke-linecap="round" stroke-linejoin="round"/>
</g>
</svg>
