<svg width="20" height="20" viewBox="0 0 20 20" fill="none" xmlns="http://www.w3.org/2000/svg">
<g id="Component 9">
<path id="Vector" d="M10 20C4.47059 20 0 15.5294 0 10C0 4.47059 4.47059 0 10 0C15.5294 0 20 4.47059 20 10C20 15.5294 15.5294 20 10 20ZM10 1.17647C5.11765 1.17647 1.17647 5.11765 1.17647 10C1.17647 14.8824 5.11765 18.8235 10 18.8235C14.8824 18.8235 18.8235 14.8824 18.8235 10C18.8235 5.11765 14.8824 1.17647 10 1.17647Z" fill="#737373"/>
<path id="Vector_2" d="M4.70589 9.41162H15.2941V10.5881H4.70589V9.41162Z" fill="#737373"/>
<path id="Vector_3" d="M9.41176 4.70605H10.5882V15.2943H9.41176V4.70605Z" fill="#737373"/>
</g>
</svg>
