<svg width="35" height="35" viewBox="0 0 35 35" fill="none" xmlns="http://www.w3.org/2000/svg">
<path d="M17.5 34.5C8.1 34.5 0.5 26.9 0.5 17.5C0.5 8.1 8.1 0.5 17.5 0.5C26.9 0.5 34.5 8.1 34.5 17.5C34.5 26.9 26.9 34.5 17.5 34.5ZM17.5 2.5C9.2 2.5 2.5 9.2 2.5 17.5C2.5 25.8 9.2 32.5 17.5 32.5C25.8 32.5 32.5 25.8 32.5 17.5C32.5 9.2 25.8 2.5 17.5 2.5Z" fill="#737373"/>
<path d="M8.5 17.5C8.5 16.9477 8.94772 16.5 9.5 16.5H25.5C26.0523 16.5 26.5 16.9477 26.5 17.5C26.5 18.0523 26.0523 18.5 25.5 18.5H9.5C8.94772 18.5 8.5 18.0523 8.5 17.5Z" fill="#737373"/>
<path d="M16.5 9.5C16.5 8.94772 16.9477 8.5 17.5 8.5C18.0523 8.5 18.5 8.94772 18.5 9.5V25.5C18.5 26.0523 18.0523 26.5 17.5 26.5C16.9477 26.5 16.5 26.0523 16.5 25.5V9.5Z" fill="#737373"/>
</svg>
