<svg width="40" height="40" viewBox="0 0 40 40" fill="none" xmlns="http://www.w3.org/2000/svg">
<g clip-path="url(#clip0_284_3978)">
<path fill-rule="evenodd" clip-rule="evenodd" d="M0.938221 4.49188C0 6.29803 0 8.67091 0 13.4167V26.5833C0 31.3291 0 33.702 0.938221 35.5081C1.72885 37.0301 2.96985 38.2711 4.49188 39.0618C6.29803 40 8.67091 40 13.4167 40H26.5833C31.3291 40 33.702 40 35.5081 39.0618C37.0301 38.2711 38.2711 37.0301 39.0618 35.5081C40 33.702 40 31.3291 40 26.5833V13.4167C40 8.67091 40 6.29803 39.0618 4.49188C38.2711 2.96985 37.0301 1.72885 35.5081 0.938221C33.702 0 31.3291 0 26.5833 0H13.4167C8.67091 0 6.29803 0 4.49188 0.938221C2.96985 1.72885 1.72885 2.96985 0.938221 4.49188ZM23.5812 9.78998C24.5921 8.5764 25.0901 7.01655 24.9695 5.44168C23.4251 5.60389 21.9984 6.34205 20.9738 7.50906C20.4729 8.07918 20.0892 8.74244 19.8447 9.46093C19.6003 10.1794 19.4998 10.939 19.5491 11.6964C20.3216 11.7043 21.0859 11.5369 21.7843 11.2067C22.4827 10.8765 23.0971 10.3921 23.5812 9.78998ZM26.984 19.8675C26.9974 18.8278 27.2736 17.8083 27.7868 16.904C28.3001 15.9996 29.0338 15.2398 29.9196 14.6952C29.3569 13.8916 28.6145 13.2302 27.7514 12.7636C26.8884 12.297 25.9284 12.0381 24.9478 12.0074C23.6682 11.8731 22.4126 12.3714 21.3864 12.7787C20.7349 13.0373 20.1759 13.2591 19.762 13.2591C19.2911 13.2591 18.7161 13.0282 18.0718 12.7694C17.2293 12.431 16.2683 12.045 15.2668 12.0656C14.1237 12.1025 13.0096 12.4349 12.0331 13.0304C11.0566 13.626 10.2511 14.4643 9.69489 15.4637C7.28575 19.6348 9.08275 25.765 11.3906 29.1367C12.5452 30.7877 13.8946 32.6319 15.6604 32.5665C16.4614 32.5333 17.0297 32.2941 17.6168 32.0471C18.2961 31.7612 19.0004 31.4647 20.1193 31.4647C21.1742 31.4647 21.8484 31.7519 22.4953 32.0275C23.1156 32.2917 23.7108 32.5453 24.5926 32.525C26.4467 32.4949 27.6149 30.8666 28.729 29.2C29.5586 28.0236 30.197 26.7234 30.6205 25.3476C29.5433 24.892 28.6241 24.1294 27.9774 23.1549C27.3308 22.1804 26.9853 21.0371 26.984 19.8675Z" fill="black"/>
<path d="M24.9695 5.44168C25.0902 7.01655 24.5921 8.57641 23.5812 9.78999C23.0971 10.3921 22.4827 10.8765 21.7843 11.2067C21.0859 11.5369 20.3216 11.7043 19.5491 11.6964C19.4998 10.9391 19.6003 10.1794 19.8447 9.46094C20.0892 8.74245 20.4729 8.07919 20.9738 7.50907C21.9984 6.34205 23.4251 5.6039 24.9695 5.44168Z" fill="white"/>
<path d="M27.7868 16.904C27.2736 17.8083 26.9974 18.8278 26.984 19.8675C26.9853 21.0371 27.3308 22.1804 27.9774 23.1549C28.6241 24.1294 29.5434 24.892 30.6205 25.3476C30.197 26.7234 29.5586 28.0236 28.729 29.2C27.6149 30.8666 26.4467 32.4949 24.5926 32.525C23.7108 32.5453 23.1156 32.2917 22.4953 32.0275C21.8484 31.7519 21.1742 31.4647 20.1193 31.4647C19.0004 31.4647 18.2961 31.7612 17.6168 32.0471C17.0297 32.2941 16.4614 32.5333 15.6604 32.5665C13.8946 32.6319 12.5452 30.7877 11.3906 29.1367C9.08276 25.7651 7.28575 19.6348 9.69489 15.4637C10.2511 14.4643 11.0566 13.626 12.0331 13.0304C13.0096 12.4349 14.1237 12.1025 15.2668 12.0656C16.2683 12.045 17.2293 12.431 18.0718 12.7694C18.7161 13.0282 19.2911 13.2591 19.762 13.2591C20.1759 13.2591 20.7349 13.0373 21.3864 12.7787C22.4126 12.3714 23.6682 11.8731 24.9478 12.0074C25.9284 12.0381 26.8884 12.297 27.7514 12.7636C28.6145 13.2302 29.3569 13.8916 29.9196 14.6953C29.0338 15.2398 28.3001 15.9996 27.7868 16.904Z" fill="white"/>
</g>
<defs>
<clipPath id="clip0_284_3978">
<rect width="40" height="40" fill="white"/>
</clipPath>
</defs>
</svg>
