<svg width="21" height="17" viewBox="0 0 21 17" fill="none" xmlns="http://www.w3.org/2000/svg">
<path d="M19.0806 14.2H18.7742V4.6C18.7742 4.36131 18.6773 4.13239 18.5049 3.9636C18.3325 3.79482 18.0987 3.7 17.8548 3.7H15.0968V1.9C15.0968 1.66131 14.9999 1.43239 14.8275 1.2636C14.6551 1.09482 14.4212 1 14.1774 1H6.82258C6.57875 1 6.34491 1.09482 6.1725 1.2636C6.00009 1.43239 5.90323 1.66131 5.90323 1.9V6.4H3.14516C2.90133 6.4 2.66749 6.49482 2.49508 6.6636C2.32267 6.83239 2.22581 7.06131 2.22581 7.3V14.2H1.91935C1.67553 14.2 1.44169 14.2948 1.26927 14.4636C1.09686 14.6324 1 14.8613 1 15.1C1 15.3387 1.09686 15.5676 1.26927 15.7364C1.44169 15.9052 1.67553 16 1.91935 16H19.0806C19.3245 16 19.5583 15.9052 19.7307 15.7364C19.9031 15.5676 20 15.3387 20 15.1C20 14.8613 19.9031 14.6324 19.7307 14.4636C19.5583 14.2948 19.3245 14.2 19.0806 14.2ZM4.06452 8.2H6.82258C7.06641 8.2 7.30025 8.10518 7.47266 7.9364C7.64508 7.76761 7.74194 7.5387 7.74194 7.3V2.8H13.2581V4.6C13.2581 4.8387 13.3549 5.06761 13.5273 5.2364C13.6998 5.40518 13.9336 5.5 14.1774 5.5H16.9355V14.2H12.0323V12.1C12.0323 12.0204 12 11.9441 11.9425 11.8879C11.885 11.8316 11.8071 11.8 11.7258 11.8H9.27419C9.19292 11.8 9.11497 11.8316 9.0575 11.8879C9.00003 11.9441 8.96774 12.0204 8.96774 12.1V14.2H4.06452V8.2ZM8.96774 4.6C8.96774 4.36131 9.0646 4.13239 9.23701 3.9636C9.40943 3.79482 9.64327 3.7 9.8871 3.7H11.1129C11.3567 3.7 11.5906 3.79482 11.763 3.9636C11.9354 4.13239 12.0323 4.36131 12.0323 4.6C12.0323 4.8387 11.9354 5.06761 11.763 5.2364C11.5906 5.40518 11.3567 5.5 11.1129 5.5H9.8871C9.64327 5.5 9.40943 5.40518 9.23701 5.2364C9.0646 5.06761 8.96774 4.8387 8.96774 4.6ZM8.96774 7.3C8.96774 7.06131 9.0646 6.83239 9.23701 6.6636C9.40943 6.49482 9.64327 6.4 9.8871 6.4H11.1129C11.3567 6.4 11.5906 6.49482 11.763 6.6636C11.9354 6.83239 12.0323 7.06131 12.0323 7.3C12.0323 7.5387 11.9354 7.76761 11.763 7.9364C11.5906 8.10518 11.3567 8.2 11.1129 8.2H9.8871C9.64327 8.2 9.40943 8.10518 9.23701 7.9364C9.0646 7.76761 8.96774 7.5387 8.96774 7.3ZM12.9516 7.3C12.9516 7.06131 13.0485 6.83239 13.2209 6.6636C13.3933 6.49482 13.6271 6.4 13.871 6.4H15.0968C15.3406 6.4 15.5744 6.49482 15.7469 6.6636C15.9193 6.83239 16.0161 7.06131 16.0161 7.3C16.0161 7.5387 15.9193 7.76761 15.7469 7.9364C15.5744 8.10518 15.3406 8.2 15.0968 8.2H13.871C13.6271 8.2 13.3933 8.10518 13.2209 7.9364C13.0485 7.76761 12.9516 7.5387 12.9516 7.3ZM8.04839 10C8.04839 10.2387 7.95153 10.4676 7.77911 10.6364C7.6067 10.8052 7.37286 10.9 7.12903 10.9H5.90323C5.6594 10.9 5.42556 10.8052 5.25314 10.6364C5.08073 10.4676 4.98387 10.2387 4.98387 10C4.98387 9.76131 5.08073 9.53239 5.25314 9.3636C5.42556 9.19482 5.6594 9.1 5.90323 9.1H7.12903C7.37286 9.1 7.6067 9.19482 7.77911 9.3636C7.95153 9.53239 8.04839 9.76131 8.04839 10ZM8.96774 10C8.96774 9.76131 9.0646 9.53239 9.23701 9.3636C9.40943 9.19482 9.64327 9.1 9.8871 9.1H11.1129C11.3567 9.1 11.5906 9.19482 11.763 9.3636C11.9354 9.53239 12.0323 9.76131 12.0323 10C12.0323 10.2387 11.9354 10.4676 11.763 10.6364C11.5906 10.8052 11.3567 10.9 11.1129 10.9H9.8871C9.64327 10.9 9.40943 10.8052 9.23701 10.6364C9.0646 10.4676 8.96774 10.2387 8.96774 10ZM12.9516 10C12.9516 9.76131 13.0485 9.53239 13.2209 9.3636C13.3933 9.19482 13.6271 9.1 13.871 9.1H15.0968C15.3406 9.1 15.5744 9.19482 15.7469 9.3636C15.9193 9.53239 16.0161 9.76131 16.0161 10C16.0161 10.2387 15.9193 10.4676 15.7469 10.6364C15.5744 10.8052 15.3406 10.9 15.0968 10.9H13.871C13.6271 10.9 13.3933 10.8052 13.2209 10.6364C13.0485 10.4676 12.9516 10.2387 12.9516 10Z" fill="#0E6BBB" stroke="#E2EFFC" stroke-width="0.5"/>
</svg>
