<svg width="12" height="12" viewBox="0 0 12 12" fill="none" xmlns="http://www.w3.org/2000/svg">
<g id="Group 149">
<path id="Vector" d="M3.45045 0.433735C3.45045 0.318701 3.40304 0.208379 3.31865 0.127038C3.23426 0.045697 3.1198 0 3.00045 0C2.8811 0 2.76664 0.045697 2.68225 0.127038C2.59786 0.208379 2.55045 0.318701 2.55045 0.433735V1.34747C1.68645 1.41398 1.12005 1.57706 0.703651 1.97899C0.286652 2.38034 0.117452 2.92684 0.0478516 3.75904H11.9531C11.8835 2.92627 11.7142 2.38034 11.2972 1.97899C10.8808 1.57706 10.3139 1.41398 9.45045 1.34689V0.433735C9.45045 0.318701 9.40304 0.208379 9.31865 0.127038C9.23426 0.045697 9.1198 0 9.00045 0C8.8811 0 8.76664 0.045697 8.68225 0.127038C8.59786 0.208379 8.55045 0.318701 8.55045 0.433735V1.30872C8.15145 1.3012 7.70385 1.3012 7.20045 1.3012H4.80045C4.29705 1.3012 3.84945 1.3012 3.45045 1.30872V0.433735Z" fill="#A3A3A3"/>
<path id="Vector_2" fill-rule="evenodd" clip-rule="evenodd" d="M0 6.21698C0 5.73177 6.70552e-09 5.30035 0.00780001 4.91577H11.9922C12 5.30035 12 5.73177 12 6.21698V7.3736C12 9.55442 12 10.6451 11.2968 11.3223C10.5942 12.0001 9.4626 12.0001 7.2 12.0001H4.8C2.5374 12.0001 1.4058 12.0001 0.7032 11.3223C-7.15256e-08 10.6451 0 9.55442 0 7.3736V6.21698ZM9 7.3736C9.15913 7.3736 9.31174 7.31267 9.42426 7.20422C9.53679 7.09576 9.6 6.94867 9.6 6.79529C9.6 6.64191 9.53679 6.49482 9.42426 6.38636C9.31174 6.27791 9.15913 6.21698 9 6.21698C8.84087 6.21698 8.68826 6.27791 8.57574 6.38636C8.46321 6.49482 8.4 6.64191 8.4 6.79529C8.4 6.94867 8.46321 7.09576 8.57574 7.20422C8.68826 7.31267 8.84087 7.3736 9 7.3736ZM9 9.68686C9.15913 9.68686 9.31174 9.62593 9.42426 9.51747C9.53679 9.40902 9.6 9.26192 9.6 9.10854C9.6 8.95516 9.53679 8.80807 9.42426 8.69961C9.31174 8.59116 9.15913 8.53023 9 8.53023C8.84087 8.53023 8.68826 8.59116 8.57574 8.69961C8.46321 8.80807 8.4 8.95516 8.4 9.10854C8.4 9.26192 8.46321 9.40902 8.57574 9.51747C8.68826 9.62593 8.84087 9.68686 9 9.68686ZM6.6 6.79529C6.6 6.94867 6.53679 7.09576 6.42426 7.20422C6.31174 7.31267 6.15913 7.3736 6 7.3736C5.84087 7.3736 5.68826 7.31267 5.57574 7.20422C5.46321 7.09576 5.4 6.94867 5.4 6.79529C5.4 6.64191 5.46321 6.49482 5.57574 6.38636C5.68826 6.27791 5.84087 6.21698 6 6.21698C6.15913 6.21698 6.31174 6.27791 6.42426 6.38636C6.53679 6.49482 6.6 6.64191 6.6 6.79529ZM6.6 9.10854C6.6 9.26192 6.53679 9.40902 6.42426 9.51747C6.31174 9.62593 6.15913 9.68686 6 9.68686C5.84087 9.68686 5.68826 9.62593 5.57574 9.51747C5.46321 9.40902 5.4 9.26192 5.4 9.10854C5.4 8.95516 5.46321 8.80807 5.57574 8.69961C5.68826 8.59116 5.84087 8.53023 6 8.53023C6.15913 8.53023 6.31174 8.59116 6.42426 8.69961C6.53679 8.80807 6.6 8.95516 6.6 9.10854ZM3 7.3736C3.15913 7.3736 3.31174 7.31267 3.42426 7.20422C3.53679 7.09576 3.6 6.94867 3.6 6.79529C3.6 6.64191 3.53679 6.49482 3.42426 6.38636C3.31174 6.27791 3.15913 6.21698 3 6.21698C2.84087 6.21698 2.68826 6.27791 2.57574 6.38636C2.46321 6.49482 2.4 6.64191 2.4 6.79529C2.4 6.94867 2.46321 7.09576 2.57574 7.20422C2.68826 7.31267 2.84087 7.3736 3 7.3736ZM3 9.68686C3.15913 9.68686 3.31174 9.62593 3.42426 9.51747C3.53679 9.40902 3.6 9.26192 3.6 9.10854C3.6 8.95516 3.53679 8.80807 3.42426 8.69961C3.31174 8.59116 3.15913 8.53023 3 8.53023C2.84087 8.53023 2.68826 8.59116 2.57574 8.69961C2.46321 8.80807 2.4 8.95516 2.4 9.10854C2.4 9.26192 2.46321 9.40902 2.57574 9.51747C2.68826 9.62593 2.84087 9.68686 3 9.68686Z" fill="#A3A3A3"/>
</g>
</svg>
