<svg width="26" height="28" viewBox="0 0 26 28" fill="none" xmlns="http://www.w3.org/2000/svg">
<g id="Group 146">
<path id="Vector" d="M7.47533 1.01205C7.47533 0.743636 7.3726 0.486218 7.18976 0.296422C7.00691 0.106626 6.75891 0 6.50033 0C6.24174 0 5.99375 0.106626 5.8109 0.296422C5.62805 0.486218 5.52533 0.743636 5.52533 1.01205V3.1441C3.65333 3.29928 2.42613 3.67981 1.52393 4.61764C0.620427 5.55412 0.253827 6.8293 0.103027 8.77108H25.8976C25.7468 6.82795 25.3802 5.55412 24.4767 4.61764C23.5745 3.67981 22.346 3.29928 20.4753 3.14275V1.01205C20.4753 0.743636 20.3726 0.486218 20.1898 0.296422C20.0069 0.106626 19.7589 0 19.5003 0C19.2417 0 18.9937 0.106626 18.8109 0.296422C18.628 0.486218 18.5253 0.743636 18.5253 1.01205V3.05369C17.6608 3.03614 16.691 3.03614 15.6003 3.03614H10.4003C9.30963 3.03614 8.33983 3.03614 7.47533 3.05369V1.01205Z" fill="#123E68"/>
<path id="Vector_2" fill-rule="evenodd" clip-rule="evenodd" d="M0 14.506C0 13.3738 1.45286e-08 12.3672 0.0169 11.4698H25.9831C26 12.3672 26 13.3738 26 14.506V17.2048C26 22.2934 26 24.8383 24.4764 26.4185C22.9541 28 20.5023 28 15.6 28H10.4C5.4977 28 3.0459 28 1.5236 26.4185C-1.54972e-07 24.8383 0 22.2934 0 17.2048V14.506ZM19.5 17.2048C19.8448 17.2048 20.1754 17.0626 20.4192 16.8096C20.663 16.5565 20.8 16.2133 20.8 15.8554C20.8 15.4975 20.663 15.1543 20.4192 14.9012C20.1754 14.6482 19.8448 14.506 19.5 14.506C19.1552 14.506 18.8246 14.6482 18.5808 14.9012C18.337 15.1543 18.2 15.4975 18.2 15.8554C18.2 16.2133 18.337 16.5565 18.5808 16.8096C18.8246 17.0626 19.1552 17.2048 19.5 17.2048ZM19.5 22.6024C19.8448 22.6024 20.1754 22.4602 20.4192 22.2072C20.663 21.9541 20.8 21.6109 20.8 21.253C20.8 20.8951 20.663 20.5519 20.4192 20.2988C20.1754 20.0458 19.8448 19.9036 19.5 19.9036C19.1552 19.9036 18.8246 20.0458 18.5808 20.2988C18.337 20.5519 18.2 20.8951 18.2 21.253C18.2 21.6109 18.337 21.9541 18.5808 22.2072C18.8246 22.4602 19.1552 22.6024 19.5 22.6024ZM14.3 15.8554C14.3 16.2133 14.163 16.5565 13.9192 16.8096C13.6754 17.0626 13.3448 17.2048 13 17.2048C12.6552 17.2048 12.3246 17.0626 12.0808 16.8096C11.837 16.5565 11.7 16.2133 11.7 15.8554C11.7 15.4975 11.837 15.1543 12.0808 14.9012C12.3246 14.6482 12.6552 14.506 13 14.506C13.3448 14.506 13.6754 14.6482 13.9192 14.9012C14.163 15.1543 14.3 15.4975 14.3 15.8554ZM14.3 21.253C14.3 21.6109 14.163 21.9541 13.9192 22.2072C13.6754 22.4602 13.3448 22.6024 13 22.6024C12.6552 22.6024 12.3246 22.4602 12.0808 22.2072C11.837 21.9541 11.7 21.6109 11.7 21.253C11.7 20.8951 11.837 20.5519 12.0808 20.2988C12.3246 20.0458 12.6552 19.9036 13 19.9036C13.3448 19.9036 13.6754 20.0458 13.9192 20.2988C14.163 20.5519 14.3 20.8951 14.3 21.253ZM6.5 17.2048C6.84478 17.2048 7.17544 17.0626 7.41924 16.8096C7.66304 16.5565 7.8 16.2133 7.8 15.8554C7.8 15.4975 7.66304 15.1543 7.41924 14.9012C7.17544 14.6482 6.84478 14.506 6.5 14.506C6.15522 14.506 5.82456 14.6482 5.58076 14.9012C5.33696 15.1543 5.2 15.4975 5.2 15.8554C5.2 16.2133 5.33696 16.5565 5.58076 16.8096C5.82456 17.0626 6.15522 17.2048 6.5 17.2048ZM6.5 22.6024C6.84478 22.6024 7.17544 22.4602 7.41924 22.2072C7.66304 21.9541 7.8 21.6109 7.8 21.253C7.8 20.8951 7.66304 20.5519 7.41924 20.2988C7.17544 20.0458 6.84478 19.9036 6.5 19.9036C6.15522 19.9036 5.82456 20.0458 5.58076 20.2988C5.33696 20.5519 5.2 20.8951 5.2 21.253C5.2 21.6109 5.33696 21.9541 5.58076 22.2072C5.82456 22.4602 6.15522 22.6024 6.5 22.6024Z" fill="#123E68"/>
</g>
</svg>
