<svg width="19" height="15" viewBox="0 0 19 15" fill="none" xmlns="http://www.w3.org/2000/svg">
<g id="Group">
<path id="Vector" d="M6.5564 8.04478C6.5564 7.26284 6.86667 6.51304 7.41879 5.9603C7.97088 5.40758 8.71956 5.09717 9.50009 5.09717C10.2806 5.09717 11.0293 5.40758 11.5814 5.9603C12.1335 6.51304 12.4438 7.26284 12.4438 8.04478C12.4438 8.82672 12.1335 9.57652 11.5814 10.1293C11.0293 10.682 10.2806 10.9924 9.50009 10.9924C8.71956 10.9924 7.97088 10.682 7.41879 10.1293C6.86667 9.57652 6.5564 8.82672 6.5564 8.04478ZM9.50009 5.47621C8.8193 5.47621 8.16652 5.74697 7.6853 6.22873C7.2041 6.71048 6.93387 7.36374 6.93387 8.04478C6.93387 8.72583 7.2041 9.37909 7.6853 9.86083C8.16652 10.3426 8.8193 10.6134 9.50009 10.6134C10.1809 10.6134 10.8337 10.3426 11.3149 9.86083C11.7961 9.37909 12.0663 8.72583 12.0663 8.04478C12.0663 7.36374 11.7961 6.71048 11.3149 6.22873C10.8337 5.74697 10.1809 5.47621 9.50009 5.47621Z" fill="black" stroke="#737373"/>
<path id="Vector_2" d="M2.06205 12.4211L2.06199 12.4207L1.97295 11.8657C1.97294 11.8656 1.97292 11.8655 1.97291 11.8654C1.61156 9.61913 1.64281 7.32705 2.06529 5.09145C2.12184 4.7907 2.27556 4.51678 2.50293 4.31191L2.83763 4.68337L2.50293 4.31191C2.73047 4.10689 3.01913 3.98242 3.32444 3.95778C3.32447 3.95778 3.3245 3.95778 3.32453 3.95777L5.3715 3.79236C5.37163 3.79235 5.37175 3.79234 5.37187 3.79233C5.54048 3.77834 5.69782 3.70145 5.81265 3.5767C5.92757 3.45185 5.9915 3.28821 5.99159 3.11822C5.99166 2.52456 6.22725 1.95512 6.64673 1.53516C7.06629 1.11512 7.63545 0.879046 8.22905 0.879046H10.771C11.0649 0.879046 11.3559 0.937002 11.6274 1.04959C11.8989 1.16218 12.1455 1.32718 12.3533 1.53516C12.561 1.74314 12.7258 1.99001 12.8382 2.26167C12.9506 2.53333 13.0084 2.82447 13.0084 3.11848V3.11893C13.0083 3.2888 13.072 3.4524 13.1869 3.57715C13.3017 3.70189 13.4591 3.77865 13.6278 3.7923L13.6279 3.79232L15.6745 3.95869C15.6745 3.95869 15.6746 3.9587 15.6746 3.9587L15.6749 3.95872L15.6344 4.45708C15.8301 4.47282 16.0152 4.55252 16.1612 4.68393C16.3072 4.81533 16.4061 4.99114 16.4425 5.18429L2.06205 12.4211ZM2.06205 12.4211C2.18299 13.1713 2.79972 13.745 3.5591 13.8071L3.55923 13.8071L5.34353 13.9523L5.34362 13.9523C8.11 14.177 10.89 14.177 13.6564 13.9523L13.6565 13.9523L15.4396 13.8071L2.06205 12.4211ZM5.59253 3.39414L5.16014 3.42929L3.29411 3.58098L3.29403 3.58099C2.90698 3.61239 2.54087 3.77019 2.252 4.03024C1.96311 4.2903 1.76745 4.63823 1.69522 5.0206L1.69521 5.0207C1.26428 7.29948 1.23214 9.6359 1.60023 11.9257L1.60028 11.926L1.6893 12.4819L5.59253 3.39414ZM5.59253 3.39414L5.61871 2.96111M5.59253 3.39414L5.61871 2.96111M5.61871 2.96111C5.65899 2.29495 5.95166 1.66941 6.43683 1.21209C6.92195 0.754815 7.56296 0.500188 8.22905 0.5C8.22909 0.5 8.22913 0.5 8.22917 0.5H10.771C12.1616 0.5 13.2995 1.58786 13.3813 2.96065L13.4071 3.39411M5.61871 2.96111L13.4071 3.39411M17.7961 4.92779C17.7037 4.43783 17.453 3.99184 17.0827 3.65845C16.7123 3.32506 16.2428 3.12274 15.7464 3.08263L17.7961 4.92779ZM17.7961 4.92779C18.2378 7.26297 18.2709 9.65792 17.8934 12.0051L17.7961 4.92779ZM13.4071 3.39411L13.8399 3.42929M13.4071 3.39411L13.8399 3.42929M13.8399 3.42929L15.7059 3.58098L15.7061 3.581M13.8399 3.42929L15.7061 3.581M15.7061 3.581C16.0932 3.61228 16.4593 3.77002 16.7482 4.03006C17.037 4.29011 17.2326 4.63807 17.3047 5.02045L17.3048 5.02072M15.7061 3.581L17.3048 5.02072M17.3048 5.02072C17.7358 7.29905 17.768 9.63569 17.3998 11.9257L17.3997 11.926M17.3048 5.02072L17.3997 11.926M17.3997 11.926L17.3107 12.4819L17.3997 11.926ZM15.4707 14.1848L15.4708 14.1848C15.9234 14.148 16.3506 13.9603 16.6842 13.6516C17.0177 13.343 17.2383 12.9313 17.3106 12.4822L15.4707 14.1848ZM15.4707 14.1848L13.6874 14.3301M15.4707 14.1848L13.6874 14.3301M13.6874 14.3301C10.9004 14.5566 8.09961 14.5566 5.31258 14.3301M13.6874 14.3301H5.31258M5.31258 14.3301L3.52928 14.1848L3.5292 14.1848C3.07662 14.148 2.64935 13.9603 2.31577 13.6516C1.98226 13.343 1.76166 12.9313 1.68936 12.4822L5.31258 14.3301Z" fill="black" stroke="#737373"/>
</g>
</svg>
