<svg width="27" height="26" viewBox="0 0 27 26" fill="none" xmlns="http://www.w3.org/2000/svg">
<path d="M5.9951 1.375C5.64992 1.375 5.3701 1.65482 5.3701 2V3.79203H2C1.65482 3.79203 1.375 4.07185 1.375 4.41703V6.78343C1.375 8.81415 1.65467 10.4638 2.3171 11.8022C2.98558 13.1528 4.01858 14.1357 5.42874 14.8734C6.34844 15.4057 7.19916 16.0684 7.95789 16.8444C8.66115 17.6454 9.51976 18.2776 10.477 18.6949C10.4946 18.7025 10.5125 18.7094 10.5307 18.7154L11.0976 18.9027V20.6922H10.2023C9.27265 20.6922 8.47645 20.7968 7.91709 21.203C7.29623 21.6538 7.12016 22.3483 7.12016 23.1015V24C7.12016 24.3452 7.39999 24.625 7.74516 24.625H19.2355C19.5807 24.625 19.8605 24.3452 19.8605 24V23.1964C19.8605 22.4171 19.6295 21.7257 19.0199 21.2597C18.4492 20.8233 17.6552 20.6732 16.7371 20.6732H15.8831V18.9079L16.4612 18.7238C16.4815 18.7174 16.5015 18.7099 16.521 18.7014C17.4801 18.2839 18.3394 17.649 19.041 16.8439C19.835 16.034 20.7212 15.3376 21.6776 14.7712C22.5373 14.3241 23.302 13.6987 23.9285 12.9341C24.5589 12.1647 25.0369 11.2696 25.3361 10.3027C25.3443 10.2764 25.3506 10.2497 25.3552 10.2226C25.5488 9.08249 25.6386 7.92506 25.6233 6.76657V4.42335C25.6233 4.07818 25.3435 3.79835 24.9983 3.79835H21.6106V2C21.6106 1.65482 21.3307 1.375 20.9856 1.375H5.9951ZM13.4923 7.55724L14.1284 8.96986C14.2293 9.19408 14.4524 9.33826 14.6983 9.33826H16.0901L14.8889 10.5281C14.7357 10.6799 14.6716 10.8999 14.7192 11.1103L15.0576 12.6028L13.8024 11.8795C13.6081 11.7676 13.3688 11.7683 13.1752 11.8813L11.9255 12.6109L12.2614 11.1293C12.3092 10.9186 12.2448 10.6983 12.0911 10.5465L10.8875 9.35724H12.2824C12.5289 9.35724 12.7523 9.21237 12.8529 8.98734L13.4923 7.55724ZM4.86151 8.18779L4.86153 8.18779L4.86103 8.18271L4.7885 7.45905H5.33474V10.1543C5.31932 10.1254 5.30403 10.0963 5.28892 10.0671C5.06495 9.46617 4.92091 8.83346 4.86151 8.18779ZM21.6438 7.45905H22.3415L22.2567 8.1499C22.2545 8.168 22.253 8.18619 22.2524 8.20441C22.2262 8.96128 22.0088 9.68711 21.6339 10.308L21.6438 7.45905Z" stroke="#123E68" stroke-width="1.25" stroke-linecap="round" stroke-linejoin="round"/>
</svg>
