<svg width="50" height="57" viewBox="0 0 50 57" fill="none" xmlns="http://www.w3.org/2000/svg">
<g filter="url(#filter0_d_770_5802)">
<path d="M25.016 4C22.3871 3.99858 19.7836 4.52392 17.3545 5.54597C14.9255 6.56802 12.7184 8.06676 10.8594 9.95648C9.00049 11.8462 7.52617 14.0898 6.52077 16.5591C5.51537 19.0285 4.9986 21.675 5 24.3475C4.99984 28.6522 6.34341 32.846 8.83728 36.325C11.3312 39.8041 14.8467 42.3889 18.8778 43.7075C20.0342 44.1037 21.0722 44.7929 21.894 45.7099C22.7158 46.627 23.2943 47.7417 23.5749 48.949L23.8524 50.0342C23.9045 50.3062 24.0479 50.5513 24.2583 50.7275C24.4686 50.9037 24.7327 51.0001 25.0053 51C25.2761 50.9976 25.5377 50.9001 25.7458 50.7241C25.954 50.5481 26.0959 50.3044 26.1476 50.0342L26.4251 48.949C26.7057 47.7417 27.2842 46.627 28.106 45.7099C28.9278 44.7929 29.9658 44.1037 31.1222 43.7075C35.1533 42.3889 38.6688 39.8041 41.1627 36.325C43.6566 32.846 45.0002 28.6522 45 24.3475C45 18.9566 42.8956 13.7861 39.1488 9.97115C35.402 6.15619 30.319 4.00863 25.016 4Z" fill="#012840"/>
</g>
<path fill-rule="evenodd" clip-rule="evenodd" d="M33.025 32.265C31.904 33 30.343 33 27.222 33H22.778C19.657 33 18.096 33 16.975 32.265C16.489 31.946 16.073 31.537 15.749 31.061C15 29.96 15 28.428 15 25.364C15 22.299 15 20.767 15.75 19.667C16.0754 19.1892 16.4916 18.7801 16.975 18.463C17.696 17.991 18.598 17.821 19.978 17.761C20.637 17.761 21.204 17.271 21.333 16.636C21.527 15.685 22.378 15 23.366 15H26.634C27.1095 14.9969 27.5714 15.1579 27.9418 15.456C28.3123 15.7541 28.5684 16.1709 28.667 16.636C28.796 17.271 29.363 17.761 30.022 17.761C31.403 17.821 32.305 17.99 33.025 18.463C33.5087 18.78 33.9253 19.1892 34.251 19.667C35 20.767 35 22.299 35 25.364C35 28.428 35 29.961 34.251 31.061C33.9253 31.5389 33.5087 31.948 33.025 32.265ZM28 25C28 26.6569 26.6569 28 25 28C23.3431 28 22 26.6569 22 25C22 23.3431 23.3431 22 25 22C26.6569 22 28 23.3431 28 25Z" fill="white"/>
<defs>
<filter id="filter0_d_770_5802" x="0" y="0" width="50" height="57" filterUnits="userSpaceOnUse" color-interpolation-filters="sRGB">
<feFlood flood-opacity="0" result="BackgroundImageFix"/>
<feColorMatrix in="SourceAlpha" type="matrix" values="0 0 0 0 0 0 0 0 0 0 0 0 0 0 0 0 0 0 127 0" result="hardAlpha"/>
<feOffset dy="1"/>
<feGaussianBlur stdDeviation="2.5"/>
<feComposite in2="hardAlpha" operator="out"/>
<feColorMatrix type="matrix" values="0 0 0 0 0 0 0 0 0 0 0 0 0 0 0 0 0 0 0.1 0"/>
<feBlend mode="normal" in2="BackgroundImageFix" result="effect1_dropShadow_770_5802"/>
<feBlend mode="normal" in="SourceGraphic" in2="effect1_dropShadow_770_5802" result="shape"/>
</filter>
</defs>
</svg>
