<svg width="18" height="17" viewBox="0 0 18 17" fill="none" xmlns="http://www.w3.org/2000/svg">
<path id="Vector" d="M5 3.88462V1.57692C5 1.42391 5.0602 1.27717 5.16737 1.16898C5.27453 1.06078 5.41988 1 5.57143 1C5.72298 1 5.86833 1.06078 5.97549 1.16898C6.08265 1.27717 6.14286 1.42391 6.14286 1.57692V3.88462C6.14286 4.03762 6.08265 4.18437 5.97549 4.29256C5.86833 4.40076 5.72298 4.46154 5.57143 4.46154C5.41988 4.46154 5.27453 4.40076 5.16737 4.29256C5.0602 4.18437 5 4.03762 5 3.88462ZM7.85714 4.46154C8.0087 4.46154 8.15404 4.40076 8.2612 4.29256C8.36837 4.18437 8.42857 4.03762 8.42857 3.88462V1.57692C8.42857 1.42391 8.36837 1.27717 8.2612 1.16898C8.15404 1.06078 8.0087 1 7.85714 1C7.70559 1 7.56025 1.06078 7.45308 1.16898C7.34592 1.27717 7.28571 1.42391 7.28571 1.57692V3.88462C7.28571 4.03762 7.34592 4.18437 7.45308 4.29256C7.56025 4.40076 7.70559 4.46154 7.85714 4.46154ZM10.1429 4.46154C10.2944 4.46154 10.4398 4.40076 10.5469 4.29256C10.6541 4.18437 10.7143 4.03762 10.7143 3.88462V1.57692C10.7143 1.42391 10.6541 1.27717 10.5469 1.16898C10.4398 1.06078 10.2944 1 10.1429 1C9.99131 1 9.84596 1.06078 9.7388 1.16898C9.63163 1.27717 9.57143 1.42391 9.57143 1.57692V3.88462C9.57143 4.03762 9.63163 4.18437 9.7388 4.29256C9.84596 4.40076 9.99131 4.46154 10.1429 4.46154ZM17 8.5V9.07692C16.9998 9.81073 16.7226 10.5169 16.2248 11.0516C15.727 11.5863 15.0461 11.9094 14.3207 11.955C13.9309 13.0682 13.2673 14.063 12.3921 14.8462H14.1429C14.2944 14.8462 14.4398 14.9069 14.5469 15.0151C14.6541 15.1233 14.7143 15.2701 14.7143 15.4231C14.7143 15.5761 14.6541 15.7228 14.5469 15.831C14.4398 15.9392 14.2944 16 14.1429 16H1.57143C1.41988 16 1.27453 15.9392 1.16737 15.831C1.0602 15.7228 1 15.5761 1 15.4231C1 15.2701 1.0602 15.1233 1.16737 15.0151C1.27453 14.9069 1.41988 14.8462 1.57143 14.8462H3.32429C2.59522 14.1958 2.01107 13.3968 1.61041 12.5017C1.20976 11.6067 1.00171 10.636 1 9.65385V6.19231C1 6.0393 1.0602 5.89256 1.16737 5.78436C1.27453 5.67617 1.41988 5.61538 1.57143 5.61538H14.1429C14.9006 5.61538 15.6273 5.9193 16.1632 6.46027C16.699 7.00124 17 7.73495 17 8.5ZM13.5714 6.76923H2.14286V9.65385C2.14506 10.7371 2.44827 11.7979 3.018 12.7158C3.58773 13.6337 4.40113 14.3718 5.36571 14.8462H10.3486C11.3132 14.3718 12.1266 13.6337 12.6963 12.7158C13.266 11.7979 13.5692 10.7371 13.5714 9.65385V6.76923ZM15.8571 8.5C15.857 8.14218 15.7471 7.79318 15.5424 7.50106C15.3377 7.20893 15.0484 6.98802 14.7143 6.86875V9.65385C14.7138 10.0161 14.6851 10.3778 14.6286 10.7356C14.9831 10.6298 15.2943 10.4112 15.5157 10.1123C15.7371 9.81335 15.8569 9.45018 15.8571 9.07692V8.5Z" fill="#0E6BBB" stroke="#0E6BBB" stroke-width="0.4"/>
</svg>
