<svg width="38" height="38" viewBox="0 0 38 38" fill="none" xmlns="http://www.w3.org/2000/svg">
<g id="Coin1-Linear-32px 1">
<path id="Vector" d="M12.667 18.05C12.667 19.2692 13.617 20.2667 14.7728 20.2667H17.1478C18.1612 20.2667 18.9845 19.3958 18.9845 18.335C18.9845 17.1792 18.4778 16.7675 17.7337 16.4983L13.9337 15.1683C13.1737 14.8992 12.667 14.4875 12.667 13.3317C12.667 12.2708 13.4903 11.4 14.5037 11.4H16.8787C18.0503 11.4158 19.0003 12.3975 19.0003 13.6167M15.8337 20.3458V21.5175M15.8337 10.1492V11.3842" stroke="#262626" stroke-width="2" stroke-linecap="round" stroke-linejoin="round"/>
<path id="Vector_2" d="M20.552 31.4766C21.977 33.4875 24.3045 34.8016 26.9645 34.8016C31.287 34.8016 34.802 31.2866 34.802 26.9641C34.802 24.3358 33.5037 22.0083 31.5245 20.5833M15.8178 28.4683C19.173 28.4683 22.3908 27.1354 24.7633 24.7629C27.1358 22.3905 28.4687 19.1727 28.4687 15.8175C28.4687 12.4622 27.1358 9.24446 24.7633 6.87197C22.3908 4.49948 19.173 3.16663 15.8178 3.16663C12.4626 3.16663 9.24483 4.49948 6.87234 6.87197C4.49984 9.24446 3.16699 12.4622 3.16699 15.8175C3.16699 19.1727 4.49984 22.3905 6.87234 24.7629C9.24483 27.1354 12.4626 28.4683 15.8178 28.4683Z" stroke="#262626" stroke-width="2" stroke-linecap="round" stroke-linejoin="round"/>
</g>
</svg>
