<svg width="24" height="22" viewBox="0 0 24 22" fill="none" xmlns="http://www.w3.org/2000/svg">
<path d="M12 4.16715V19.9172M22.5 3.30615V15.9797C22.5 16.9877 21.681 17.9327 20.673 18.0587L20.3265 18.1007C18.0375 18.4052 14.5095 19.5707 12.4935 20.6837C12.2205 20.8412 11.769 20.8412 11.4855 20.6837L11.4435 20.6627C9.4275 19.5602 5.91 18.4052 3.6315 18.1007L3.327 18.0587C2.319 17.9327 1.5 16.9877 1.5 15.9797V3.29565C1.5 2.04615 2.5185 1.10115 3.768 1.20615C5.973 1.38465 9.312 2.49765 11.181 3.66315L11.4435 3.82065C11.748 4.00965 12.252 4.00965 12.5565 3.82065L12.735 3.70515C13.3965 3.29565 14.2365 2.88615 15.15 2.51865V6.80265L17.25 5.40615L19.35 6.80265V1.32165C19.6335 1.26915 19.9065 1.23765 20.1585 1.21665H20.2215C21.471 1.11165 22.5 2.04615 22.5 3.30615Z" stroke="#525252" stroke-width="1.75" stroke-linecap="round" stroke-linejoin="round"/>
<path d="M19.3504 1.32172V6.80272L17.2504 5.40622L15.1504 6.80272V2.51872C16.5259 1.97272 18.0589 1.53172 19.3504 1.32172Z" stroke="#525252" stroke-width="1.75" stroke-linecap="round" stroke-linejoin="round"/>
</svg>
