<svg width="23" height="23" viewBox="0 0 23 23" fill="none" xmlns="http://www.w3.org/2000/svg">
<g id="iconamoon:comment-dots-thin">
<g id="Group">
<path id="Vector" d="M11.9619 19.4885C13.7677 19.4881 15.524 18.8965 16.963 17.8038C18.4019 16.7112 19.4447 15.1774 19.9324 13.4362C20.4201 11.695 20.3259 9.84195 19.6642 8.15934C19.0026 6.47673 17.8097 5.05686 16.2674 4.11613C14.7251 3.17539 12.9179 2.76537 11.1213 2.94854C9.3247 3.13171 7.63716 3.89803 6.31584 5.13072C4.99453 6.36341 4.1119 7.99488 3.80246 9.7765C3.49302 11.5581 3.77375 13.3922 4.60185 14.9992L3.68185 19.4885L8.16501 18.5672C9.30213 19.1559 10.5938 19.4885 11.9619 19.4885Z" stroke="#404040" stroke-width="1.5" stroke-linecap="round" stroke-linejoin="round"/>
<path id="Vector_2" d="M7.82184 11.1971H7.83104V11.2064H7.82184V11.1971ZM11.9618 11.1971H11.971V11.2064H11.9618V11.1971ZM16.1018 11.1971H16.111V11.2064H16.1018V11.1971Z" stroke="#404040" stroke-width="2" stroke-linejoin="round"/>
</g>
</g>
</svg>
