<svg width="27" height="27" viewBox="0 0 27 27" fill="none" xmlns="http://www.w3.org/2000/svg">
<g id="Group">
<path id="Vector" d="M15.0625 18.1875C11.9375 18.1875 7.25 19.75 7.25 26" stroke="#737373" stroke-width="2" stroke-linecap="round" stroke-linejoin="round"/>
<path id="Vector_2" d="M1 5.6875V2.5625C1 2.1481 1.16462 1.75067 1.45765 1.45765C1.75067 1.16462 2.1481 1 2.5625 1H5.6875M11.9375 1H15.0625M21.3125 1H24.4375C24.8519 1 25.2493 1.16462 25.5424 1.45765C25.8354 1.75067 26 2.1481 26 2.5625V5.6875M26 11.9375V15.0625M26 21.3125V24.4375C26 24.8519 25.8354 25.2493 25.5424 25.5424C25.2493 25.8354 24.8519 26 24.4375 26H21.3125M1 15.0625C1 14.2337 1.32924 13.4388 1.91529 12.8528C2.50134 12.2667 3.2962 11.9375 4.125 11.9375H11.9375C12.7663 11.9375 13.5612 12.2667 14.1472 12.8528C14.7333 13.4388 15.0625 14.2337 15.0625 15.0625V22.875C15.0625 23.7038 14.7333 24.4987 14.1472 25.0847C13.5612 25.6708 12.7663 26 11.9375 26H4.125C3.2962 26 2.50134 25.6708 1.91529 25.0847C1.32924 24.4987 1 23.7038 1 22.875V15.0625Z" stroke="#737373" stroke-width="2" stroke-linecap="round" stroke-linejoin="round"/>
</g>
</svg>
