<svg width="20" height="10" viewBox="0 0 20 10" fill="none" xmlns="http://www.w3.org/2000/svg">
<path id="Vector" d="M3.5501 6.14939L5.50842 8.1077C5.6999 8.31659 5.80017 8.56482 5.80922 8.85239C5.81827 9.13996 5.71801 9.38784 5.50842 9.59603C5.29884 9.80422 5.05514 9.90866 4.77732 9.90936C4.4995 9.91005 4.2558 9.80561 4.04621 9.59603L0.28624 5.83605C0.181796 5.73161 0.107641 5.61846 0.0637748 5.49661C0.0199084 5.37476 -0.00132831 5.24421 6.42734e-05 5.10495C0.00145686 4.96569 0.02339 4.83514 0.0658638 4.71329C0.108338 4.59143 0.182144 4.47829 0.287284 4.37384L4.04726 0.613871C4.25614 0.404984 4.49985 0.300541 4.77836 0.300541C5.05688 0.300541 5.30058 0.404984 5.50947 0.613871C5.71836 0.822759 5.8228 1.07099 5.8228 1.35855C5.8228 1.64612 5.71836 1.894 5.50947 2.10219L3.5501 4.06051H16.4489L14.4906 2.10219C14.2991 1.89331 14.1992 1.64543 14.1908 1.35855C14.1825 1.07168 14.2824 0.823455 14.4906 0.613871C14.6988 0.404288 14.9425 0.299844 15.2217 0.300541C15.5009 0.301237 15.7446 0.40568 15.9528 0.613871L19.7128 4.37384C19.8172 4.47829 19.8914 4.59143 19.9352 4.71329C19.9791 4.83514 20.0007 4.96569 20 5.10495C19.9993 5.24421 19.9777 5.37476 19.9352 5.49661C19.8928 5.61846 19.8186 5.73161 19.7128 5.83605L15.9528 9.59603C15.7439 9.80491 15.5002 9.90936 15.2217 9.90936C14.9432 9.90936 14.6995 9.80491 14.4906 9.59603C14.2817 9.38714 14.1772 9.13926 14.1772 8.85239C14.1772 8.56552 14.2817 8.31729 14.4906 8.1077L16.4489 6.14939H3.5501Z" fill="#525252"/>
</svg>
