<svg width="50" height="57" viewBox="0 0 50 57" fill="none" xmlns="http://www.w3.org/2000/svg">
<g filter="url(#filter0_d_770_5752)">
<path d="M25.016 4C22.3871 3.99858 19.7836 4.52392 17.3545 5.54597C14.9255 6.56802 12.7184 8.06676 10.8594 9.95648C9.00049 11.8462 7.52617 14.0898 6.52077 16.5591C5.51537 19.0285 4.9986 21.675 5 24.3475C4.99984 28.6522 6.34341 32.846 8.83728 36.325C11.3312 39.8041 14.8467 42.3889 18.8778 43.7075C20.0342 44.1037 21.0722 44.7929 21.894 45.7099C22.7158 46.627 23.2943 47.7417 23.5749 48.949L23.8524 50.0342C23.9045 50.3062 24.0479 50.5513 24.2583 50.7275C24.4686 50.9037 24.7327 51.0001 25.0053 51C25.2761 50.9976 25.5377 50.9001 25.7458 50.7241C25.954 50.5481 26.0959 50.3044 26.1476 50.0342L26.4251 48.949C26.7057 47.7417 27.2842 46.627 28.106 45.7099C28.9278 44.7929 29.9658 44.1037 31.1222 43.7075C35.1533 42.3889 38.6688 39.8041 41.1627 36.325C43.6566 32.846 45.0002 28.6522 45 24.3475C45 18.9566 42.8956 13.7861 39.1488 9.97115C35.402 6.15619 30.319 4.00863 25.016 4Z" fill="#543310"/>
</g>
<path d="M18.2857 15.5998C18.2857 15.4407 18.218 15.2882 18.0974 15.1757C17.9769 15.0632 17.8134 15 17.6429 15C17.4724 15 17.3089 15.0632 17.1883 15.1757C17.0677 15.2882 17 15.4407 17 15.5998C17 16.8018 17.882 17.4171 18.4914 17.843L18.5429 17.879C19.2191 18.3516 19.5714 18.6347 19.5714 19.1985C19.5714 19.3576 19.6392 19.5101 19.7597 19.6226C19.8803 19.7351 20.0438 19.7983 20.2143 19.7983C20.3848 19.7983 20.5483 19.7351 20.6689 19.6226C20.7894 19.5101 20.8571 19.3576 20.8571 19.1985C20.8571 17.9965 19.9751 17.3812 19.3657 16.9553L19.3143 16.9193C18.638 16.4467 18.2857 16.1636 18.2857 15.5998ZM22.1429 15.5998C22.1429 15.4407 22.0751 15.2882 21.9546 15.1757C21.834 15.0632 21.6705 15 21.5 15C21.3295 15 21.166 15.0632 21.0454 15.1757C20.9249 15.2882 20.8571 15.4407 20.8571 15.5998C20.8571 16.8018 21.7391 17.4171 22.3486 17.843L22.4 17.879C23.0763 18.3516 23.4286 18.6347 23.4286 19.1985C23.4286 19.3576 23.4963 19.5101 23.6169 19.6226C23.7374 19.7351 23.9009 19.7983 24.0714 19.7983C24.2419 19.7983 24.4054 19.7351 24.526 19.6226C24.6466 19.5101 24.7143 19.3576 24.7143 19.1985C24.7143 17.9965 23.8323 17.3812 23.2229 16.9553L23.1714 16.9193C22.4951 16.4467 22.1429 16.1636 22.1429 15.5998ZM25.3571 15C25.5276 15 25.6912 15.0632 25.8117 15.1757C25.9323 15.2882 26 15.4407 26 15.5998C26 16.1636 26.3523 16.4467 27.0286 16.9193L27.08 16.9553C27.6894 17.3812 28.5714 17.9965 28.5714 19.1985C28.5714 19.3576 28.5037 19.5101 28.3831 19.6226C28.2626 19.7351 28.0991 19.7983 27.9286 19.7983C27.7581 19.7983 27.5946 19.7351 27.474 19.6226C27.3534 19.5101 27.2857 19.3576 27.2857 19.1985C27.2857 18.6347 26.9334 18.3516 26.2571 17.879L26.2057 17.843C25.5963 17.4171 24.7143 16.8018 24.7143 15.5998C24.7143 15.4407 24.782 15.2882 24.9026 15.1757C25.0231 15.0632 25.1866 15 25.3571 15ZM17 22.0667C17 21.4777 17.513 20.9979 18.1456 20.9979H29.9973C30.6299 20.9979 31.1429 21.4765 31.1429 22.0667V22.1974H31.7857C32.6382 22.1974 33.4558 22.5134 34.0586 23.0758C34.6614 23.6382 35 24.401 35 25.1964C35 25.9918 34.6614 26.7545 34.0586 27.317C33.4558 27.8794 32.6382 28.1953 31.7857 28.1953H30.8767C30.4125 29.7289 29.3691 31.0539 27.9393 31.9256C26.5094 32.7972 24.7897 33.1565 23.098 32.9372C21.4063 32.7178 19.8568 31.9346 18.7359 30.7322C17.615 29.5298 16.9984 27.9895 17 26.396V22.0667ZM31.1146 26.9957H31.7857C32.2972 26.9957 32.7877 26.8062 33.1494 26.4687C33.5111 26.1313 33.7143 25.6736 33.7143 25.1964C33.7143 24.7192 33.5111 24.2615 33.1494 23.924C32.7877 23.5866 32.2972 23.397 31.7857 23.397H31.1429V26.396C31.1429 26.5983 31.1334 26.7982 31.1146 26.9957Z" fill="#FAFAFA"/>
<defs>
<filter id="filter0_d_770_5752" x="0" y="0" width="50" height="57" filterUnits="userSpaceOnUse" color-interpolation-filters="sRGB">
<feFlood flood-opacity="0" result="BackgroundImageFix"/>
<feColorMatrix in="SourceAlpha" type="matrix" values="0 0 0 0 0 0 0 0 0 0 0 0 0 0 0 0 0 0 127 0" result="hardAlpha"/>
<feOffset dy="1"/>
<feGaussianBlur stdDeviation="2.5"/>
<feComposite in2="hardAlpha" operator="out"/>
<feColorMatrix type="matrix" values="0 0 0 0 0 0 0 0 0 0 0 0 0 0 0 0 0 0 0.1 0"/>
<feBlend mode="normal" in2="BackgroundImageFix" result="effect1_dropShadow_770_5752"/>
<feBlend mode="normal" in="SourceGraphic" in2="effect1_dropShadow_770_5752" result="shape"/>
</filter>
</defs>
</svg>
