<svg width="18" height="14" viewBox="0 0 18 14" fill="none" xmlns="http://www.w3.org/2000/svg">
<g id="Vector">
<path id="Vector_2" fill-rule="evenodd" clip-rule="evenodd" d="M2.7 14C1.98392 14 1.29716 13.7234 0.790812 13.2312C0.284464 12.7389 0 12.0712 0 11.375V2.625C0 1.92881 0.284464 1.26113 0.790812 0.768845C1.29716 0.276562 1.98392 0 2.7 0H15.3C16.0161 0 16.7028 0.276562 17.2092 0.768845C17.7155 1.26113 18 1.92881 18 2.625V11.375C18 12.0712 17.7155 12.7389 17.2092 13.2312C16.7028 13.7234 16.0161 14 15.3 14H2.7ZM5.0625 3.6925C4.97082 3.61639 4.86435 3.55896 4.7494 3.52363C4.63446 3.48829 4.51338 3.47577 4.39336 3.4868C4.27334 3.49783 4.15682 3.53219 4.05072 3.58785C3.94463 3.6435 3.85111 3.71931 3.77573 3.81077C3.70034 3.90224 3.64463 4.0075 3.61189 4.1203C3.57915 4.2331 3.57006 4.35115 3.58515 4.46743C3.60024 4.58372 3.6392 4.69587 3.69973 4.79723C3.76026 4.89859 3.84111 4.9871 3.9375 5.0575L7.3125 7.68338C7.79138 8.05613 8.38655 8.25924 9 8.25924C9.61345 8.25924 10.2086 8.05613 10.6875 7.68338L14.0625 5.05838C14.1548 4.98656 14.2317 4.89777 14.2887 4.79708C14.3457 4.69638 14.3817 4.58576 14.3948 4.47152C14.4078 4.35728 14.3976 4.24166 14.3647 4.13127C14.3317 4.02088 14.2768 3.91787 14.2029 3.82812C14.129 3.73838 14.0377 3.66366 13.9341 3.60824C13.8306 3.55281 13.7168 3.51776 13.5993 3.50508C13.4818 3.49241 13.3629 3.50236 13.2493 3.53436C13.1358 3.56637 13.0298 3.61981 12.9375 3.69162L9.5625 6.31662C9.40287 6.44088 9.20448 6.50858 9 6.50858C8.79552 6.50858 8.59713 6.44088 8.4375 6.31662L5.0625 3.6925Z" fill="#A3A3A3"/>
</g>
</svg>
