<svg width="22" height="14" viewBox="0 0 22 14" fill="none" xmlns="http://www.w3.org/2000/svg">
<g id="Vector">
<path id="Vector_2" d="M0 1.4C0 1.0287 0.173839 0.672601 0.483274 0.41005C0.792709 0.147499 1.21239 0 1.65 0H20.35C20.7876 7.82463e-09 21.2073 0.147499 21.5167 0.41005C21.8262 0.672601 22 1.0287 22 1.4C22 1.7713 21.8262 2.1274 21.5167 2.38995C21.2073 2.6525 20.7876 2.8 20.35 2.8H1.65C1.21239 2.8 0.792709 2.6525 0.483274 2.38995C0.173839 2.1274 0 1.7713 0 1.4ZM4.4 7C4.4 6.6287 4.57384 6.2726 4.88327 6.01005C5.19271 5.7475 5.61239 5.6 6.05 5.6H15.95C16.3876 5.6 16.8073 5.7475 17.1167 6.01005C17.4262 6.2726 17.6 6.6287 17.6 7C17.6 7.3713 17.4262 7.7274 17.1167 7.98995C16.8073 8.2525 16.3876 8.4 15.95 8.4H6.05C5.61239 8.4 5.19271 8.2525 4.88327 7.98995C4.57384 7.7274 4.4 7.3713 4.4 7ZM9.35 11.2C8.91239 11.2 8.49271 11.3475 8.18327 11.6101C7.87384 11.8726 7.7 12.2287 7.7 12.6C7.7 12.9713 7.87384 13.3274 8.18327 13.5899C8.49271 13.8525 8.91239 14 9.35 14H12.65C13.0876 14 13.5073 13.8525 13.8167 13.5899C14.1262 13.3274 14.3 12.9713 14.3 12.6C14.3 12.2287 14.1262 11.8726 13.8167 11.6101C13.5073 11.3475 13.0876 11.2 12.65 11.2H9.35Z" fill="#404040"/>
</g>
</svg>
