<svg width="15" height="23" viewBox="0 0 15 23" fill="none" xmlns="http://www.w3.org/2000/svg">
<path id="Vector" d="M8.61377 8.02672L8.44504 8.43165L8.82458 8.65163L14.1247 11.7235C14.1249 11.7236 14.125 11.7237 14.1252 11.7238C14.2258 11.7825 14.3113 11.8639 14.3751 11.9614C14.439 12.059 14.4793 12.1702 14.4929 12.2861C14.5064 12.402 14.4928 12.5194 14.4532 12.6292C14.4136 12.7387 14.3491 12.8376 14.2648 12.918C14.2647 12.9181 14.2646 12.9182 14.2644 12.9184L4.89013 21.7952L4.88837 21.7969C4.76392 21.9159 4.60225 21.9883 4.43061 22.0021C4.25896 22.0158 4.08783 21.97 3.94603 21.8723C3.80424 21.7746 3.70045 21.631 3.65215 21.4657C3.60385 21.3004 3.61399 21.1236 3.68086 20.9649L3.68163 20.9631L6.38547 14.4753L6.55419 14.0705L6.17478 13.8505L0.873265 10.776C0.873139 10.776 0.873013 10.7759 0.872887 10.7758C0.772189 10.717 0.686543 10.6355 0.622712 10.5379L0.205952 10.8105L0.622711 10.5379C0.5588 10.4402 0.51851 10.3289 0.50503 10.2129C0.491551 10.0969 0.505251 9.97938 0.545048 9.86959C0.584809 9.75991 0.64953 9.66097 0.734097 9.58059C0.734172 9.58052 0.734247 9.58045 0.734323 9.58037L10.1001 0.714113L10.1689 0.655116C10.3007 0.554411 10.4621 0.499849 10.6281 0.5C10.7552 0.501054 10.88 0.534247 10.9909 0.596499C11.1021 0.658932 11.1956 0.748553 11.2627 0.856974C11.3298 0.965395 11.3684 1.08907 11.3747 1.21644C11.381 1.3438 11.3549 1.47068 11.2988 1.58521L11.2922 1.59879L11.2864 1.61275L8.61377 8.02672Z" fill="#525252" stroke="#525252"/>
</svg>
