<svg width="21" height="21" viewBox="0 0 21 21" fill="none" xmlns="http://www.w3.org/2000/svg">
<g id="Group 173">
<path id="Vector" d="M1.5 20.1826C1.5 16.4354 5.22781 13.4048 9.81737 13.4048C10.7469 13.4048 11.6474 13.5307 12.4898 13.763M9.81737 10.5C11.1014 10.5 12.3328 9.98994 13.2407 9.08202C14.1486 8.17409 14.6587 6.94269 14.6587 5.65869C14.6587 4.3747 14.1486 3.14329 13.2407 2.23537C12.3328 1.32745 11.1014 0.817383 9.81737 0.817383C8.53338 0.817383 7.30197 1.32745 6.39405 2.23537C5.48613 3.14329 4.97606 4.3747 4.97606 5.65869C4.97606 6.94269 5.48613 8.17409 6.39405 9.08202C7.30197 9.98994 8.53338 10.5 9.81737 10.5Z" stroke="#525252" stroke-width="1.25" stroke-linecap="round" stroke-linejoin="round"/>
<path id="Vector_2" d="M17.0697 16.2897H14.1843M15.627 14.8761V17.7712M19.5 16.3091C19.5 16.6189 19.4613 16.9191 19.3838 17.2096C19.2967 17.5969 19.1418 17.9745 18.9384 18.3037C18.5971 18.8774 18.1122 19.3523 17.5316 19.6817C16.9509 20.011 16.2945 20.1835 15.627 20.1821C14.6737 20.1849 13.7542 19.8289 13.0514 19.1848C12.7609 18.9331 12.5092 18.6329 12.3155 18.3037C11.9469 17.7038 11.7525 17.0132 11.7539 16.3091C11.7533 15.8003 11.853 15.2964 12.0474 14.8262C12.2418 14.356 12.5271 13.9288 12.8869 13.569C13.2467 13.2092 13.6739 12.924 14.1441 12.7296C14.6142 12.5351 15.1182 12.4354 15.627 12.436C16.7695 12.436 17.8056 12.9299 18.5027 13.7238C19.1224 14.4113 19.5 15.3215 19.5 16.3091Z" stroke="#525252" stroke-width="1.25" stroke-miterlimit="10" stroke-linecap="round" stroke-linejoin="round"/>
</g>
</svg>
