<svg width="17" height="15" viewBox="0 0 17 15" fill="none" xmlns="http://www.w3.org/2000/svg">
<path id="Vector" d="M5.26933 7.06931L5.62797 7.4177C5.6062 7.4401 5.5915 7.4735 5.5915 7.51125C5.5915 7.549 5.60621 7.5824 5.62797 7.6048L5.26933 7.95319L5.62797 7.6048C5.64925 7.62671 5.67498 7.63625 5.69864 7.63625H6.07143H6.57143V8.13625V8.7153V8.71625H6.07143L5.26933 7.06931ZM5.26933 7.06931L5.62797 7.4177C5.64925 7.39579 5.67498 7.38625 5.69864 7.38625H6.67857C6.70223 7.38625 6.72796 7.39579 6.74925 7.4177C6.77101 7.4401 6.78571 7.4735 6.78571 7.51125V8.71625C6.78571 8.92617 6.742 9.16811 6.56893 9.33681L5.26933 7.06931ZM4.86709 5.38534L4.86648 5.3854L6.56884 9.33689C6.285 9.6133 5.77393 9.88625 5.22143 9.88625C3.97826 9.88625 2.92857 8.96009 2.92857 7.51125C2.92857 6.06911 3.92953 5.23556 4.84731 5.13715L4.84778 5.1371C5.521 5.06427 6.11621 5.17556 6.43102 5.33805L6.43827 5.34179L6.44564 5.3453C6.4578 5.35108 6.46973 5.3598 6.48023 5.3717L6.48024 5.37171C6.49077 5.38364 6.49957 5.39845 6.50539 5.41555C6.51123 5.43268 6.51377 5.45123 6.51262 5.46993C6.51147 5.48863 6.5067 5.50643 6.49904 5.52219C6.49139 5.53793 6.48124 5.55093 6.4699 5.56089L6.79999 5.93645L6.4699 5.5609C6.45859 5.57083 6.4463 5.57762 6.43404 5.58161C6.42181 5.58559 6.4093 5.58691 6.39705 5.58572C6.38478 5.58452 6.37227 5.58077 6.36025 5.57409L6.35271 5.56991L6.34503 5.56598C6.07401 5.42754 5.51841 5.31564 4.86709 5.38534ZM9.03647 5.16895L8.67783 4.82056L9.03647 5.16895C9.05775 5.14704 9.08348 5.1375 9.10714 5.1375C9.13081 5.1375 9.15653 5.14704 9.17782 5.16895L9.53646 4.82056L9.17782 5.16895C9.19958 5.19135 9.21429 5.22474 9.21429 5.2625V9.7625C9.21429 9.80026 9.19958 9.83365 9.17782 9.85605L9.53646 10.2044L9.17782 9.85605C9.15653 9.87796 9.1308 9.8875 9.10714 9.8875C9.08348 9.8875 9.05775 9.87796 9.03647 9.85605C9.0147 9.83365 9 9.80025 9 9.7625V5.2625C9 5.22475 9.0147 5.19135 9.03647 5.16895ZM11.5357 5.1375H11.536L13.9643 5.13625C13.9643 5.13625 13.9644 5.13625 13.9644 5.13625C13.988 5.13628 14.0137 5.14583 14.035 5.1677C14.0567 5.1901 14.0714 5.2235 14.0714 5.26125C14.0714 5.29901 14.0567 5.3324 14.035 5.3548C14.0137 5.37671 13.9879 5.38625 13.9643 5.38625H12.1429H11.6429V5.88625V6.8825V7.38561L12.146 7.38249L13.3566 7.37499C13.3802 7.37484 13.406 7.38422 13.4273 7.40594C13.4492 7.42816 13.4641 7.46141 13.4643 7.49916C13.4645 7.53692 13.45 7.57046 13.4283 7.59305C13.4071 7.61516 13.3814 7.62486 13.3577 7.62501L12.1398 7.63251L11.6429 7.63557V8.1325V9.7625C11.6429 9.80025 11.6282 9.83365 11.6064 9.85605C11.5851 9.87796 11.5594 9.8875 11.5357 9.8875C11.5121 9.8875 11.4863 9.87796 11.465 9.85605L11.1064 10.2044L11.465 9.85605C11.4433 9.83365 11.4286 9.80026 11.4286 9.7625V5.2625C11.4286 5.22474 11.4433 5.19135 11.465 5.16895L11.1064 4.82056L11.465 5.16895C11.4863 5.14704 11.5121 5.1375 11.5357 5.1375ZM1.38913 13.5492L1.74777 13.2008L1.38913 13.5492C1.82329 13.9961 2.41528 14.25 3.03571 14.25H13.9643C14.5847 14.25 15.1767 13.9961 15.6109 13.5492C16.0446 13.1028 16.2857 12.5003 16.2857 11.875V3.125C16.2857 2.49971 16.0446 1.89722 15.6109 1.45078C15.1767 1.00385 14.5847 0.75 13.9643 0.75H3.03571C2.41528 0.75 1.82329 1.00385 1.38913 1.45078C0.955447 1.89722 0.714286 2.49971 0.714286 3.125V11.875C0.714286 12.5003 0.955447 13.1028 1.38913 13.5492ZM1.24778 1.26368C1.72451 0.772933 2.36795 0.5 3.03571 0.5H13.9643C14.632 0.5 15.2755 0.772933 15.7522 1.26368C16.2294 1.75493 16.5 2.42421 16.5 3.125V11.875C16.5 12.5758 16.2294 13.2451 15.7522 13.7363C15.2755 14.2271 14.632 14.5 13.9643 14.5H3.03571C2.36795 14.5 1.72451 14.2271 1.24778 13.7363C0.770572 13.2451 0.5 12.5758 0.5 11.875V3.125C0.5 2.42421 0.770572 1.75493 1.24778 1.26368Z" fill="black" stroke="#737373"/>
</svg>
