<svg width="20" height="19" viewBox="0 0 20 19" fill="none" xmlns="http://www.w3.org/2000/svg">
<path d="M9.99955 2.2559L9.6597 1.94041C8.62176 0.976871 7.24621 0.460694 5.83062 0.503547C4.41503 0.5464 3.07322 1.14484 2.09546 2.1694L2.09359 2.17135C-0.0311611 4.37391 -0.0312561 7.9276 2.09366 10.1312L8.87941 17.1644C9.16477 17.4597 9.55513 17.6304 9.96567 17.6395C10.3636 17.6483 10.7493 17.5046 11.0442 17.2386L11.0718 17.212C12.6401 15.7025 14.1514 14.0982 15.6567 12.5002L15.6779 12.4778L15.6779 12.4777L15.8029 12.345C16.5036 11.6013 17.2036 10.8583 17.9047 10.1317M9.99955 2.2559L18.2651 10.4783M9.99955 2.2559L10.3397 1.94074C11.3369 1.0168 12.6456 0.502406 14.005 0.5M9.99955 2.2559L14.0046 0M17.9047 10.1317C17.9049 10.1315 17.9051 10.1313 17.9053 10.1311L18.2651 10.4783M17.9047 10.1317C17.9046 10.1318 17.9044 10.132 17.9043 10.1321L18.2651 10.4783M17.9047 10.1317C18.9312 9.06134 19.503 7.63483 19.5 6.1518L19.5 6.14974C19.503 4.66674 18.9313 3.24029 17.9048 2.16997M18.2651 10.4783C19.3815 9.31452 20.0033 7.76339 20 6.15077C20.0033 4.53815 19.3815 2.98701 18.2651 1.82328M17.9048 2.16997C17.905 2.17013 17.9051 2.17028 17.9053 2.17044L18.2651 1.82328M17.9048 2.16997C17.9046 2.16979 17.9044 2.16959 17.9043 2.16941L18.2651 1.82328M17.9048 2.16997C16.8756 1.10348 15.4721 0.500116 14.005 0.5M18.2651 1.82328C17.1432 0.660472 15.6102 0 14.0046 0M14.0046 0L14.0054 0.499999C14.0053 0.5 14.0051 0.5 14.005 0.5M14.0046 0V0.5C14.0047 0.5 14.0049 0.5 14.005 0.5" stroke="#0A0A0A"/>
</svg>
