<svg width="20" height="19" viewBox="0 0 20 19" fill="none" xmlns="http://www.w3.org/2000/svg">
<g id="Vector">
<path id="Vector_2" d="M9.99955 2.2559L9.6597 1.94041C8.62176 0.976871 7.24621 0.460694 5.83062 0.503547C4.41503 0.5464 3.07322 1.14484 2.09546 2.1694L2.09359 2.17135C-0.0311611 4.37391 -0.031256 7.9276 2.09366 10.1312L8.87941 17.1644L9.99955 2.2559ZM9.99955 2.2559L10.3397 1.94074M9.99955 2.2559L10.3397 1.94074M10.3397 1.94074C11.3369 1.0168 12.6456 0.502406 14.005 0.5C15.4721 0.500116 16.8756 1.10349 17.9048 2.17001M10.3397 1.94074L17.9048 2.17001M17.9048 2.17001C18.9313 3.24032 19.503 4.66676 19.5 6.14974L19.5 6.1518C19.503 7.63468 18.9314 9.06105 17.905 10.1313C17.9048 10.1316 17.9045 10.1319 17.9043 10.1321L18.2651 10.4783C17.5659 11.2029 16.8676 11.9441 16.1662 12.6885L17.9048 2.17001Z" fill="#EF4444" stroke="#EF4444"/>
</g>
</svg>
