<svg width="22" height="15" viewBox="0 0 22 15" fill="none" xmlns="http://www.w3.org/2000/svg">
<path id="Vector" d="M0 15V0H2V10H10V2H18C19.1 2 20.0417 2.39167 20.825 3.175C21.6083 3.95833 22 4.9 22 6V15H20V12H2V15H0ZM6 9C5.16667 9 4.45833 8.70833 3.875 8.125C3.29167 7.54167 3 6.83333 3 6C3 5.16667 3.29167 4.45833 3.875 3.875C4.45833 3.29167 5.16667 3 6 3C6.83333 3 7.54167 3.29167 8.125 3.875C8.70833 4.45833 9 5.16667 9 6C9 6.83333 8.70833 7.54167 8.125 8.125C7.54167 8.70833 6.83333 9 6 9ZM12 10H20V6C20 5.45 19.8043 4.97933 19.413 4.588C19.0217 4.19667 18.5507 4.00067 18 4H12V10ZM6 7C6.28333 7 6.521 6.904 6.713 6.712C6.905 6.52 7.00067 6.28267 7 6C6.99933 5.71733 6.90333 5.48 6.712 5.288C6.52067 5.096 6.28333 5 6 5C5.71667 5 5.47933 5.096 5.288 5.288C5.09667 5.48 5.00067 5.71733 5 6C4.99933 6.28267 5.09533 6.52033 5.288 6.713C5.48067 6.90567 5.718 7.00133 6 7Z" fill="#0E6BBB"/>
</svg>
