<svg width="27" height="27" viewBox="0 0 27 27" fill="none" xmlns="http://www.w3.org/2000/svg">
<g id="Vector">
<path id="Vector_2" fill-rule="evenodd" clip-rule="evenodd" d="M20.0647 11.8937C20.0647 12.9667 19.8534 14.0292 19.4427 15.0206C19.0321 16.0119 18.4302 16.9127 17.6715 17.6715C16.9127 18.4302 16.0119 19.0321 15.0206 19.4427C14.0292 19.8534 12.9667 20.0647 11.8937 20.0647C10.8206 20.0647 9.75809 19.8534 8.76674 19.4427C7.77538 19.0321 6.87461 18.4302 6.11586 17.6715C5.3571 16.9127 4.75523 16.0119 4.3446 15.0206C3.93396 14.0292 3.72261 12.9667 3.72261 11.8937C3.72261 9.72657 4.58349 7.64823 6.11586 6.11586C7.64823 4.58349 9.72657 3.72261 11.8937 3.72261C14.0608 3.72261 16.1391 4.58349 17.6715 6.11586C19.2038 7.64823 20.0647 9.72657 20.0647 11.8937ZM18.5758 20.5005C16.3866 22.2 13.632 23.0014 10.8728 22.7414C8.11361 22.4815 5.55718 21.1798 3.72397 19.1013C1.89076 17.0228 0.91858 14.3237 1.00535 11.5537C1.09211 8.78358 2.2313 6.1507 4.191 4.191C6.1507 2.2313 8.78358 1.09211 11.5537 1.00535C14.3237 0.91858 17.0228 1.89076 19.1013 3.72397C21.1798 5.55718 22.4815 8.11361 22.7414 10.8728C23.0014 13.632 22.2 16.3866 20.5005 18.5758L25.5666 23.6418C25.7004 23.7665 25.8077 23.9168 25.8821 24.0839C25.9565 24.2509 25.9966 24.4313 25.9998 24.6141C26.003 24.797 25.9694 24.9786 25.9009 25.1482C25.8324 25.3178 25.7304 25.4718 25.6011 25.6011C25.4718 25.7304 25.3178 25.8324 25.1482 25.9009C24.9786 25.9694 24.797 26.003 24.6141 25.9998C24.4313 25.9966 24.2509 25.9565 24.0839 25.8821C23.9168 25.8077 23.7665 25.7004 23.6418 25.5666L18.5758 20.5005Z" fill="#123E68" stroke="#FAFAFA" stroke-width="1.1"/>
</g>
</svg>
