<svg width="18" height="14" viewBox="0 0 18 14" fill="none" xmlns="http://www.w3.org/2000/svg">
<g id="Vector">
<path id="Vector_2" d="M15.3 4.87849C16.0161 4.87849 16.7028 5.13548 17.2092 5.59293C17.7155 6.05037 18 6.67081 18 7.31773V9.75698C18 10.4039 17.7155 11.0243 17.2092 11.4818C16.7028 11.9392 16.0161 12.1962 15.3 12.1962V12.9817C15.3 13.8435 14.1876 14.3143 13.455 13.7622L11.3742 12.1962H9C8.28392 12.1962 7.59716 11.9392 7.09081 11.4818C6.58446 11.0243 6.3 10.4039 6.3 9.75698V7.31773C6.3 6.67081 6.58446 6.05037 7.09081 5.59293C7.59716 5.13548 8.28392 4.87849 9 4.87849H15.3ZM12.6 0C13.3161 0 14.0028 0.256991 14.5092 0.714438C15.0155 1.17189 15.3 1.79232 15.3 2.43924V3.25233H8.1C7.14522 3.25233 6.22955 3.59498 5.55442 4.20491C4.87928 4.81484 4.5 5.64208 4.5 6.50465V9.75698C4.5 10.6058 4.86 11.3799 5.4504 11.9588L4.5 12.6028C3.7584 13.1052 2.7 12.6272 2.7 11.7897V10.5701C1.98392 10.5701 1.29716 10.3131 0.790812 9.85562C0.284464 9.39818 0 8.77774 0 8.13082V2.43924C0 1.79232 0.284464 1.17189 0.790812 0.714438C1.29716 0.256991 1.98392 0 2.7 0H12.6Z" fill="#A3A3A3"/>
</g>
</svg>
