<svg width="13" height="22" viewBox="0 0 13 22" fill="none" xmlns="http://www.w3.org/2000/svg">
<path id="Vector" d="M2.6 10.6379V4.84483C2.6 3.69251 3.01089 2.58738 3.74228 1.77257C4.47368 0.957757 5.46566 0.5 6.5 0.5C7.53434 0.5 8.52633 0.957757 9.25772 1.77257C9.98911 2.58738 10.4 3.69251 10.4 4.84483V10.6379C10.4 11.7903 9.98911 12.8954 9.25772 13.7102C8.52633 14.525 7.53434 14.9828 6.5 14.9828C5.46566 14.9828 4.47368 14.525 3.74228 13.7102C3.01089 12.8954 2.6 11.7903 2.6 10.6379ZM13 10.6379C13 10.4459 12.9315 10.2617 12.8096 10.1259C12.6877 9.99009 12.5224 9.91379 12.35 9.91379C12.1776 9.91379 12.0123 9.99009 11.8904 10.1259C11.7685 10.2617 11.7 10.4459 11.7 10.6379C11.7 12.1744 11.1521 13.6479 10.177 14.7343C9.20177 15.8207 7.87913 16.431 6.5 16.431C5.12087 16.431 3.79823 15.8207 2.82304 14.7343C1.84786 13.6479 1.3 12.1744 1.3 10.6379C1.3 10.4459 1.23152 10.2617 1.10962 10.1259C0.987721 9.99009 0.822391 9.91379 0.65 9.91379C0.477609 9.91379 0.312279 9.99009 0.190381 10.1259C0.0684821 10.2617 0 10.4459 0 10.6379C0.00197934 12.4325 0.601186 14.1625 1.68175 15.4933C2.76231 16.8242 4.24746 17.6614 5.85 17.8431V20.7759C5.85 20.9679 5.91848 21.1521 6.04038 21.2879C6.16228 21.4237 6.32761 21.5 6.5 21.5C6.67239 21.5 6.83772 21.4237 6.95962 21.2879C7.08152 21.1521 7.15 20.9679 7.15 20.7759V17.8431C8.75254 17.6614 10.2377 16.8242 11.3183 15.4933C12.3988 14.1625 12.998 12.4325 13 10.6379Z" fill="black"/>
</svg>
