<svg width="22" height="23" viewBox="0 0 22 23" fill="none" xmlns="http://www.w3.org/2000/svg">
<path fill-rule="evenodd" clip-rule="evenodd" d="M0.437391 9.13097C0.449236 8.62017 0.610794 8.12472 0.901212 7.70857C1.19163 7.29243 1.59757 6.97469 2.06664 6.79638L18.6672 0.303678C19.0868 0.12768 19.548 0.0823157 19.9928 0.173293C20.4376 0.264272 20.8461 0.487525 21.1669 0.814957C21.4876 1.14239 21.7064 1.55937 21.7955 2.0134C21.8846 2.46743 21.8402 2.93823 21.6678 3.36654L15.3058 20.312C15.1311 20.7908 14.8198 21.2052 14.4122 21.5017C14.0045 21.7981 13.5191 21.963 13.0187 21.9751C12.0807 21.9971 11.1106 21.4598 10.7762 20.3361L8.8625 13.908C8.82574 13.7817 8.75866 13.6667 8.66735 13.5735C8.57604 13.4803 8.46338 13.4118 8.33958 13.3743L2.0437 11.4194C0.944316 11.078 0.41653 10.0878 0.438087 9.13026M1.91297 9.16504C1.90462 9.5455 2.09376 9.86066 2.47344 9.97849L2.25857 10.699L2.47274 9.9792L8.77071 11.9319C9.49598 12.1569 10.0558 12.7283 10.2762 13.4687L12.1892 19.8975C12.3046 20.285 12.614 20.4774 12.9867 20.4689C13.3671 20.4597 13.7565 20.2325 13.9297 19.7718L20.2909 2.82708C20.5718 2.07751 19.9293 1.42164 19.1957 1.70912L2.59443 8.20253C2.39878 8.27405 2.22891 8.40433 2.10716 8.57625C1.9854 8.74817 1.91816 8.95297 1.91297 9.16504Z" fill="#404040"/>
<path d="M0.437391 9.13097C0.449236 8.62017 0.610794 8.12472 0.901212 7.70857C1.19163 7.29243 1.59757 6.97469 2.06664 6.79638L18.6672 0.303678C19.0868 0.127679 19.548 0.0823149 19.9928 0.173293C20.4376 0.264271 20.8461 0.487526 21.1669 0.814957C21.4876 1.14239 21.7064 1.55937 21.7955 2.0134C21.8846 2.46743 21.8402 2.93823 21.6678 3.36654L15.3058 20.312C15.1311 20.7908 14.8198 21.2052 14.4122 21.5017C14.0045 21.7981 13.5191 21.963 13.0187 21.9751C12.0807 21.9971 11.1106 21.4598 10.7762 20.3361L8.8625 13.908M8.8625 13.908L9.569 13.6894M8.8625 13.908C8.82574 13.7817 8.75866 13.6667 8.66735 13.5735C8.57604 13.4803 8.46338 13.4118 8.33958 13.3743L2.0437 11.4194C0.944316 11.078 0.41653 10.0878 0.438087 9.13026M1.91297 9.16504C1.90462 9.5455 2.09376 9.86066 2.47344 9.97849L2.25857 10.699L2.47274 9.9792L8.77071 11.9319C9.49598 12.1569 10.0558 12.7283 10.2762 13.4687L12.1892 19.8975C12.3046 20.285 12.614 20.4774 12.9867 20.4689C13.3671 20.4597 13.7565 20.2325 13.9297 19.7718L20.2909 2.82708C20.5718 2.07751 19.9293 1.42164 19.1957 1.70912L2.59443 8.20253C2.39878 8.27405 2.22891 8.40433 2.10716 8.57625C1.9854 8.74817 1.91816 8.95297 1.91297 9.16504Z" stroke="#404040" stroke-width="0.25"/>
</svg>
