<svg width="25" height="25" viewBox="0 0 25 25" fill="none" xmlns="http://www.w3.org/2000/svg">
<g id="Vector">
<path id="Vector_2" d="M12.5 0.833386L13.0417 0.200054C12.8907 0.0709469 12.6986 0 12.5 0C12.3014 0 12.1093 0.0709469 11.9583 0.200054L12.5 0.833386ZM0.833333 10.8334L0.291667 10.2L0 10.45V10.8334H0.833333ZM9.16667 24.1667V25C9.38768 25 9.59964 24.9122 9.75592 24.7559C9.9122 24.5996 10 24.3877 10 24.1667H9.16667ZM15.8333 24.1667H15C15 24.3877 15.0878 24.5996 15.2441 24.7559C15.4004 24.9122 15.6123 25 15.8333 25V24.1667ZM24.1667 10.8334H25V10.45L24.7083 10.2L24.1667 10.8334ZM2.5 25H9.16667V23.3333H2.5V25ZM24.7083 10.2L13.0417 0.200054L11.9583 1.46672L23.625 11.4667L24.7083 10.2ZM11.9583 0.200054L0.291667 10.2L1.375 11.4667L13.0417 1.46672L11.9583 0.200054ZM10 24.1667V19.1667H8.33333V24.1667H10ZM15 19.1667V24.1667H16.6667V19.1667H15ZM15.8333 25H22.5V23.3333H15.8333V25ZM25 22.5V10.8334H23.3333V22.5H25ZM0 10.8334V22.5H1.66667V10.8334H0ZM12.5 16.6667C13.163 16.6667 13.7989 16.9301 14.2678 17.3989C14.7366 17.8678 15 18.5036 15 19.1667H16.6667C16.6667 18.0616 16.2277 17.0018 15.4463 16.2204C14.6649 15.439 13.6051 15 12.5 15V16.6667ZM12.5 15C11.3949 15 10.3351 15.439 9.55372 16.2204C8.77232 17.0018 8.33333 18.0616 8.33333 19.1667H10C10 18.5036 10.2634 17.8678 10.7322 17.3989C11.2011 16.9301 11.837 16.6667 12.5 16.6667V15ZM22.5 25C23.163 25 23.7989 24.7366 24.2678 24.2678C24.7366 23.7989 25 23.163 25 22.5H23.3333C23.3333 22.721 23.2455 22.933 23.0893 23.0893C22.933 23.2455 22.721 23.3333 22.5 23.3333V25ZM2.5 23.3333C2.27899 23.3333 2.06702 23.2455 1.91074 23.0893C1.75446 22.933 1.66667 22.721 1.66667 22.5H0C0 23.163 0.263392 23.7989 0.732233 24.2678C1.20107 24.7366 1.83696 25 2.5 25V23.3333Z" fill="#123E68"/>
</g>
</svg>
