<svg width="124" height="44" viewBox="0 0 124 44" fill="none" xmlns="http://www.w3.org/2000/svg">
<path d="M2.41147 23V6.2H4.97947L15.5155 19.136H14.2435V6.2H17.3395V23H14.7715L4.23547 10.064H5.50747V23H2.41147ZM26.3772 23.168C24.9532 23.168 23.7052 22.888 22.6332 22.328C21.5772 21.752 20.7532 20.968 20.1612 19.976C19.5852 18.984 19.2972 17.856 19.2972 16.592C19.2972 15.312 19.5772 14.184 20.1372 13.208C20.7132 12.216 21.4972 11.44 22.4892 10.88C23.4972 10.32 24.6412 10.04 25.9212 10.04C27.1692 10.04 28.2812 10.312 29.2572 10.856C30.2332 11.4 31.0012 12.168 31.5612 13.16C32.1212 14.152 32.4012 15.32 32.4012 16.664C32.4012 16.792 32.3932 16.936 32.3772 17.096C32.3772 17.256 32.3692 17.408 32.3532 17.552H21.6732V15.56H30.7692L29.5932 16.184C29.6092 15.448 29.4572 14.8 29.1372 14.24C28.8172 13.68 28.3772 13.24 27.8172 12.92C27.2732 12.6 26.6412 12.44 25.9212 12.44C25.1852 12.44 24.5372 12.6 23.9772 12.92C23.4332 13.24 23.0012 13.688 22.6812 14.264C22.3772 14.824 22.2252 15.488 22.2252 16.256V16.736C22.2252 17.504 22.4012 18.184 22.7532 18.776C23.1052 19.368 23.6012 19.824 24.2412 20.144C24.8812 20.464 25.6172 20.624 26.4492 20.624C27.1692 20.624 27.8172 20.512 28.3932 20.288C28.9692 20.064 29.4812 19.712 29.9292 19.232L31.5372 21.08C30.9612 21.752 30.2332 22.272 29.3532 22.64C28.4892 22.992 27.4972 23.168 26.3772 23.168ZM36.6805 23L31.9765 10.184H34.8085L38.8405 21.488H37.4965L41.7205 10.184H44.2405L48.3445 21.488H47.0245L51.1765 10.184H53.8405L49.1125 23H46.2325L42.4885 12.992H43.3765L39.5605 23H36.6805ZM60.424 23V6.2H67.336C68.824 6.2 70.096 6.44 71.152 6.92C72.224 7.4 73.048 8.088 73.624 8.984C74.2 9.88 74.488 10.944 74.488 12.176C74.488 13.408 74.2 14.472 73.624 15.368C73.048 16.264 72.224 16.952 71.152 17.432C70.096 17.912 68.824 18.152 67.336 18.152H62.152L63.544 16.688V23H60.424ZM63.544 17.024L62.152 15.512H67.192C68.568 15.512 69.6 15.224 70.288 14.648C70.992 14.056 71.344 13.232 71.344 12.176C71.344 11.104 70.992 10.28 70.288 9.704C69.6 9.128 68.568 8.84 67.192 8.84H62.152L63.544 7.304V17.024ZM81.8288 23.168C80.5168 23.168 79.3488 22.888 78.3248 22.328C77.3008 21.752 76.4928 20.968 75.9008 19.976C75.3088 18.984 75.0128 17.856 75.0128 16.592C75.0128 15.312 75.3088 14.184 75.9008 13.208C76.4928 12.216 77.3008 11.44 78.3248 10.88C79.3488 10.32 80.5168 10.04 81.8288 10.04C83.1568 10.04 84.3328 10.32 85.3568 10.88C86.3968 11.44 87.2048 12.208 87.7808 13.184C88.3728 14.16 88.6688 15.296 88.6688 16.592C88.6688 17.856 88.3728 18.984 87.7808 19.976C87.2048 20.968 86.3968 21.752 85.3568 22.328C84.3328 22.888 83.1568 23.168 81.8288 23.168ZM81.8288 20.6C82.5648 20.6 83.2208 20.44 83.7968 20.12C84.3728 19.8 84.8208 19.336 85.1408 18.728C85.4768 18.12 85.6448 17.408 85.6448 16.592C85.6448 15.76 85.4768 15.048 85.1408 14.456C84.8208 13.848 84.3728 13.384 83.7968 13.064C83.2208 12.744 82.5728 12.584 81.8528 12.584C81.1168 12.584 80.4608 12.744 79.8848 13.064C79.3248 13.384 78.8768 13.848 78.5408 14.456C78.2048 15.048 78.0368 15.76 78.0368 16.592C78.0368 17.408 78.2048 18.12 78.5408 18.728C78.8768 19.336 79.3248 19.8 79.8848 20.12C80.4608 20.44 81.1088 20.6 81.8288 20.6ZM94.2975 23.168C93.2255 23.168 92.1935 23.032 91.2015 22.76C90.2255 22.472 89.4495 22.128 88.8735 21.728L90.0255 19.448C90.6015 19.816 91.2895 20.12 92.0895 20.36C92.8895 20.6 93.6895 20.72 94.4895 20.72C95.4335 20.72 96.1135 20.592 96.5295 20.336C96.9615 20.08 97.1775 19.736 97.1775 19.304C97.1775 18.952 97.0335 18.688 96.7455 18.512C96.4575 18.32 96.0815 18.176 95.6175 18.08C95.1535 17.984 94.6335 17.896 94.0575 17.816C93.4975 17.736 92.9295 17.632 92.3535 17.504C91.7935 17.36 91.2815 17.16 90.8175 16.904C90.3535 16.632 89.9775 16.272 89.6895 15.824C89.4015 15.376 89.2575 14.784 89.2575 14.048C89.2575 13.232 89.4895 12.528 89.9535 11.936C90.4175 11.328 91.0655 10.864 91.8975 10.544C92.7455 10.208 93.7455 10.04 94.8975 10.04C95.7615 10.04 96.6335 10.136 97.5135 10.328C98.3935 10.52 99.1215 10.792 99.6975 11.144L98.5455 13.424C97.9375 13.056 97.3215 12.808 96.6975 12.68C96.0895 12.536 95.4815 12.464 94.8735 12.464C93.9615 12.464 93.2815 12.6 92.8335 12.872C92.4015 13.144 92.1855 13.488 92.1855 13.904C92.1855 14.288 92.3295 14.576 92.6175 14.768C92.9055 14.96 93.2815 15.112 93.7455 15.224C94.2095 15.336 94.7215 15.432 95.2815 15.512C95.8575 15.576 96.4255 15.68 96.9855 15.824C97.5455 15.968 98.0575 16.168 98.5215 16.424C99.0015 16.664 99.3855 17.008 99.6735 17.456C99.9615 17.904 100.106 18.488 100.106 19.208C100.106 20.008 99.8655 20.704 99.3855 21.296C98.9215 21.888 98.2575 22.352 97.3935 22.688C96.5295 23.008 95.4975 23.168 94.2975 23.168ZM106.313 23.168C104.905 23.168 103.817 22.808 103.049 22.088C102.281 21.352 101.897 20.272 101.897 18.848V7.352H104.897V18.776C104.897 19.384 105.049 19.856 105.353 20.192C105.673 20.528 106.113 20.696 106.673 20.696C107.345 20.696 107.905 20.52 108.353 20.168L109.193 22.304C108.841 22.592 108.409 22.808 107.897 22.952C107.385 23.096 106.857 23.168 106.313 23.168ZM99.7851 12.68V10.28H108.329V12.68H99.7851ZM114.421 23.168C113.349 23.168 112.317 23.032 111.325 22.76C110.349 22.472 109.573 22.128 108.997 21.728L110.149 19.448C110.725 19.816 111.413 20.12 112.213 20.36C113.013 20.6 113.813 20.72 114.613 20.72C115.557 20.72 116.237 20.592 116.653 20.336C117.085 20.08 117.301 19.736 117.301 19.304C117.301 18.952 117.157 18.688 116.869 18.512C116.581 18.32 116.205 18.176 115.741 18.08C115.277 17.984 114.757 17.896 114.181 17.816C113.621 17.736 113.053 17.632 112.477 17.504C111.917 17.36 111.405 17.16 110.941 16.904C110.477 16.632 110.101 16.272 109.813 15.824C109.525 15.376 109.381 14.784 109.381 14.048C109.381 13.232 109.613 12.528 110.077 11.936C110.541 11.328 111.189 10.864 112.021 10.544C112.869 10.208 113.869 10.04 115.021 10.04C115.885 10.04 116.757 10.136 117.637 10.328C118.517 10.52 119.245 10.792 119.821 11.144L118.669 13.424C118.061 13.056 117.445 12.808 116.821 12.68C116.213 12.536 115.605 12.464 114.997 12.464C114.085 12.464 113.405 12.6 112.957 12.872C112.525 13.144 112.309 13.488 112.309 13.904C112.309 14.288 112.453 14.576 112.741 14.768C113.029 14.96 113.405 15.112 113.869 15.224C114.333 15.336 114.845 15.432 115.405 15.512C115.981 15.576 116.549 15.68 117.109 15.824C117.669 15.968 118.181 16.168 118.645 16.424C119.125 16.664 119.509 17.008 119.797 17.456C120.085 17.904 120.229 18.488 120.229 19.208C120.229 20.008 119.989 20.704 119.509 21.296C119.045 21.888 118.381 22.352 117.517 22.688C116.653 23.008 115.621 23.168 114.421 23.168Z" fill="#123E68"/>
<path d="M114.16 32.0069C30.1151 18.2782 7.11464 32.1229 6.12 40.7612" stroke="#123E68" stroke-linecap="round"/>
</svg>
