<svg width="16" height="14" viewBox="0 0 16 14" fill="none" xmlns="http://www.w3.org/2000/svg">
<path id="Vector" d="M10.6667 10.5005L7.11111 14H14.2222C15.2 14 16 13.2126 16 12.2503C16 11.2879 15.2 10.5005 14.2222 10.5005H10.6667ZM8.05333 2.79296L0.257778 10.4655C0.0977777 10.623 0 10.8505 0 11.0779V13.1251C0 13.6063 0.4 14 0.888889 14H2.96889C3.20889 14 3.43111 13.9038 3.6 13.7463L11.3956 6.07371L8.05333 2.79296ZM13.9644 3.5366C14.0468 3.45566 14.1122 3.35952 14.1568 3.25369C14.2014 3.14785 14.2244 3.0344 14.2244 2.91982C14.2244 2.80524 14.2014 2.69178 14.1568 2.58595C14.1122 2.48011 14.0468 2.38397 13.9644 2.30304L11.8844 0.255849C11.8022 0.174746 11.7045 0.110402 11.597 0.0664998C11.4895 0.0225978 11.3742 0 11.2578 0C11.1414 0 11.0261 0.0225978 10.9186 0.0664998C10.811 0.110402 10.7133 0.174746 10.6311 0.255849L9.00445 1.85685L12.3378 5.1376L13.9644 3.5366Z" fill="#A3A3A3"/>
</svg>
