<svg width="20" height="21" viewBox="0 0 20 21" fill="none" xmlns="http://www.w3.org/2000/svg">
<path id="Vector" d="M16 12.21H8.5L10.5 10.21H16M4 12.21V9.70996L10.88 2.84996C11.07 2.65996 11.39 2.65996 11.59 2.84996L13.35 4.61996C13.55 4.81996 13.55 5.12996 13.35 5.32996L6.47 12.21M18 0.209961H2C1.46957 0.209961 0.960859 0.420675 0.585786 0.795747C0.210714 1.17082 0 1.67953 0 2.20996V20.21L4 16.21H18C18.5304 16.21 19.0391 15.9992 19.4142 15.6242C19.7893 15.2491 20 14.7404 20 14.21V2.20996C20 1.67953 19.7893 1.17082 19.4142 0.795747C19.0391 0.420675 18.5304 0.209961 18 0.209961Z" fill="#525252"/>
</svg>
