<svg width="25" height="28" viewBox="0 0 25 28" fill="none" xmlns="http://www.w3.org/2000/svg">
<g id="Vector">
<path id="Vector_2" fill-rule="evenodd" clip-rule="evenodd" d="M0 12.1331C0.00152975 8.9144 1.31923 5.82802 3.66332 3.55272C6.00742 1.27742 9.18597 -0.000495467 12.5 1.44105e-07C19.4019 1.44105e-07 25 5.43339 25 12.1331C25 17.1276 22.4269 21.0855 19.6692 23.7601C18.4502 24.9493 17.084 25.987 15.6019 26.8494C14.9827 27.2043 14.4038 27.4845 13.9 27.675C13.425 27.858 12.9269 28 12.5 28C12.0731 28 11.575 27.858 11.1 27.675C10.5118 27.4425 9.9428 27.1665 9.39808 26.8494C7.91605 25.9869 6.54985 24.9492 5.33077 23.7601C2.57308 21.0855 0 17.1276 0 12.1331ZM12.5 7.46555C11.2249 7.46555 10.0021 7.95751 9.10045 8.8332C8.19883 9.7089 7.69231 10.8966 7.69231 12.135C7.69231 13.3734 8.19883 14.5611 9.10045 15.4368C10.0021 16.3125 11.2249 16.8045 12.5 16.8045C13.7751 16.8045 14.9979 16.3125 15.8996 15.4368C16.8012 14.5611 17.3077 13.3734 17.3077 12.135C17.3077 10.8966 16.8012 9.7089 15.8996 8.8332C14.9979 7.95751 13.7751 7.46555 12.5 7.46555Z" fill="#123E68"/>
</g>
</svg>
