<svg width="17" height="22" viewBox="0 0 17 22" fill="none" xmlns="http://www.w3.org/2000/svg">
<path id="Vector" d="M14.5104 15.3492L8.5 21.5L2.48956 15.3492C1.30082 14.1327 0.491287 12.5828 0.163321 10.8954C-0.164645 9.2081 0.00368983 7.45913 0.647038 5.86969C1.29039 4.28026 2.37985 2.92175 3.77767 1.96595C5.17548 1.01015 6.81886 0.5 8.5 0.5C10.1811 0.5 11.8245 1.01015 13.2223 1.96595C14.6201 2.92175 15.7096 4.28026 16.353 5.86969C16.9963 7.45913 17.1646 9.2081 16.8367 10.8954C16.5087 12.5828 15.6992 14.1327 14.5104 15.3492ZM8.5 13.0644C9.50193 13.0644 10.4628 12.6571 11.1713 11.9321C11.8798 11.2071 12.2778 10.2237 12.2778 9.19841C12.2778 8.17308 11.8798 7.18975 11.1713 6.46474C10.4628 5.73972 9.50193 5.33242 8.5 5.33242C7.49807 5.33242 6.53718 5.73972 5.82871 6.46474C5.12024 7.18975 4.72222 8.17308 4.72222 9.19841C4.72222 10.2237 5.12024 11.2071 5.82871 11.9321C6.53718 12.6571 7.49807 13.0644 8.5 13.0644ZM8.5 11.1314C7.99904 11.1314 7.51859 10.9277 7.16436 10.5652C6.81012 10.2027 6.61111 9.71107 6.61111 9.19841C6.61111 8.68575 6.81012 8.19408 7.16436 7.83157C7.51859 7.46907 7.99904 7.26541 8.5 7.26541C9.00096 7.26541 9.48141 7.46907 9.83565 7.83157C10.1899 8.19408 10.254 8.54775 10.254 9.06041C10.254 9.57308 9.52884 9.25019 9.1746 9.6127C8.82036 9.9752 9.00096 11.1314 8.5 11.1314Z" fill="url(#paint0_linear_288_4232)"/>
<defs>
<linearGradient id="paint0_linear_288_4232" x1="-3" y1="28" x2="19.4301" y2="5.9373" gradientUnits="userSpaceOnUse">
<stop stop-color="#123E68" stop-opacity="0.9"/>
<stop offset="1" stop-color="#247BCE"/>
</linearGradient>
</defs>
</svg>
