<svg width="8" height="9" viewBox="0 0 8 9" fill="none" xmlns="http://www.w3.org/2000/svg">
<path id="Vector" fill-rule="evenodd" clip-rule="evenodd" d="M0 3.89994C0.00048952 2.86534 0.422153 1.87329 1.17226 1.14194C1.92237 0.410598 2.93951 -0.000159257 4 4.63196e-08C6.20862 4.63196e-08 8 1.74645 8 3.89994C8 5.5053 7.17662 6.77747 6.29415 7.63718C5.90406 8.01941 5.46688 8.35295 4.99262 8.63018C4.79446 8.74425 4.60923 8.8343 4.448 8.89554C4.296 8.95437 4.13662 9 4 9C3.86338 9 3.704 8.95437 3.552 8.89554C3.36377 8.82081 3.1817 8.7321 3.00738 8.63018C2.53314 8.35294 2.09595 8.01939 1.70585 7.63718C0.823385 6.77747 0 5.5053 0 3.89994ZM4 2.39964C3.59197 2.39964 3.20066 2.55777 2.91214 2.83924C2.62363 3.12072 2.46154 3.50248 2.46154 3.90054C2.46154 4.2986 2.62363 4.68036 2.91214 4.96184C3.20066 5.24331 3.59197 5.40144 4 5.40144C4.40803 5.40144 4.79934 5.24331 5.08786 4.96184C5.37637 4.68036 5.53846 4.2986 5.53846 3.90054C5.53846 3.50248 5.37637 3.12072 5.08786 2.83924C4.79934 2.55777 4.40803 2.39964 4 2.39964Z" fill="#A3A3A3"/>
</svg>
