<svg width="20" height="20" viewBox="0 0 20 20" fill="none" xmlns="http://www.w3.org/2000/svg">
<g id="Group">
<path id="Vector" fill-rule="evenodd" clip-rule="evenodd" d="M3.875 13.9995C3.93322 13.9219 4.00871 13.8589 4.09549 13.8155C4.18228 13.7721 4.27797 13.7495 4.375 13.7495H7.5C7.66576 13.7495 7.82473 13.8154 7.94194 13.9326C8.05915 14.0498 8.125 14.2088 8.125 14.3745C8.125 14.5403 8.05915 14.6992 7.94194 14.8165C7.82473 14.9337 7.66576 14.9995 7.5 14.9995H4.6875L1.875 18.7495H18.125L15.3125 14.9995H12.5C12.3342 14.9995 12.1753 14.9337 12.0581 14.8165C11.9408 14.6992 11.875 14.5403 11.875 14.3745C11.875 14.2088 11.9408 14.0498 12.0581 13.9326C12.1753 13.8154 12.3342 13.7495 12.5 13.7495H15.625C15.722 13.7495 15.8177 13.7721 15.9045 13.8155C15.9913 13.8589 16.0668 13.9219 16.125 13.9995L19.875 18.9995C19.9446 19.0924 19.9871 19.2028 19.9975 19.3184C20.0079 19.434 19.9859 19.5502 19.934 19.654C19.8821 19.7578 19.8023 19.8451 19.7036 19.9062C19.6048 19.9672 19.4911 19.9995 19.375 19.9995H0.625C0.50893 19.9995 0.395153 19.9672 0.296418 19.9062C0.197683 19.8451 0.117891 19.7578 0.0659833 19.654C0.0140752 19.5502 -0.00789801 19.434 0.00252572 19.3184C0.0129495 19.2028 0.0553583 19.0924 0.125 18.9995L3.875 13.9995Z" fill="#4371E8"/>
<path id="Vector_2" fill-rule="evenodd" clip-rule="evenodd" d="M5 4.99954C5.00009 4.03732 5.27782 3.09556 5.79987 2.28728C6.32192 1.47899 7.0661 0.838501 7.94313 0.44267C8.82016 0.0468386 9.79278 -0.087523 10.7443 0.0557075C11.6958 0.198938 12.5857 0.613676 13.3074 1.25016C14.029 1.88664 14.5517 2.71782 14.8126 3.64398C15.0736 4.57013 15.0617 5.55192 14.7786 6.47152C14.4954 7.39112 13.9529 8.20948 13.2161 8.8284C12.4794 9.44732 11.5797 9.84051 10.625 9.96079V16.8745C10.625 17.0403 10.5592 17.1993 10.4419 17.3165C10.3247 17.4337 10.1658 17.4995 10 17.4995C9.83424 17.4995 9.67527 17.4337 9.55806 17.3165C9.44085 17.1993 9.375 17.0403 9.375 16.8745V9.96204C8.16621 9.80974 7.05461 9.22133 6.24902 8.30733C5.44343 7.39333 4.99928 6.21789 5 4.99954Z" fill="#4371E8"/>
</g>
</svg>
