<svg width="63" height="72" viewBox="0 0 63 72" fill="none" xmlns="http://www.w3.org/2000/svg">
<path id="Vector" d="M31.5 0.813965C39.8543 0.813965 47.8665 4.12054 53.7739 10.0063C59.6813 15.892 63 23.8748 63 32.1985C63 42.9181 57.134 51.6918 50.953 57.9861C47.8649 61.0969 44.4952 63.9172 40.887 66.4111L39.396 67.4224L38.696 67.8862L37.3765 68.7231L36.2005 69.438L34.7445 70.2819C33.7562 70.8439 32.6379 71.1395 31.5 71.1395C30.3621 71.1395 29.2438 70.8439 28.2555 70.2819L26.7995 69.438L24.9795 68.3221L24.3075 67.8862L22.8725 66.9342C18.9799 64.3102 15.3542 61.3132 12.047 57.9861C5.866 51.6883 0 42.9181 0 32.1985C0 23.8748 3.31874 15.892 9.22613 10.0063C15.1335 4.12054 23.1457 0.813965 31.5 0.813965Z" fill="#4371E8"/>
</svg>
