<svg width="14" height="15" viewBox="0 0 14 15" fill="none" xmlns="http://www.w3.org/2000/svg">
<path fill-rule="evenodd" clip-rule="evenodd" d="M0 6.4999C0.000856659 4.77557 0.738767 3.12215 2.05146 1.90324C3.36415 0.684331 5.14414 -0.000265429 7 7.71993e-08C10.8651 7.71993e-08 14 2.91075 14 6.4999C14 9.17551 12.5591 11.2958 11.0148 12.7286C10.3321 13.3657 9.56703 13.9216 8.73708 14.3836C8.39031 14.5737 8.06615 14.7238 7.784 14.8259C7.518 14.924 7.23908 15 7 15C6.76092 15 6.482 14.924 6.216 14.8259C5.8866 14.7014 5.56797 14.5535 5.26292 14.3836C4.43299 13.9216 3.66792 13.3657 2.98523 12.7286C1.44092 11.2958 0 9.17551 0 6.4999ZM7 3.9994C6.28596 3.9994 5.60116 4.26295 5.09625 4.73207C4.59135 5.2012 4.30769 5.83746 4.30769 6.5009C4.30769 7.16434 4.59135 7.80061 5.09625 8.26973C5.60116 8.73885 6.28596 9.0024 7 9.0024C7.71404 9.0024 8.39884 8.73885 8.90375 8.26973C9.40865 7.80061 9.69231 7.16434 9.69231 6.5009C9.69231 5.83746 9.40865 5.2012 8.90375 4.73207C8.39884 4.26295 7.71404 3.9994 7 3.9994Z" fill="#171717"/>
</svg>
