<svg width="29" height="29" viewBox="0 0 29 29" fill="none" xmlns="http://www.w3.org/2000/svg">
<g id="2">
<path id="3" d="M29 14.5C29 22.5081 22.5081 29 14.5 29C6.49187 29 0 22.5081 0 14.5C0 6.49187 6.49187 0 14.5 0C22.5081 0 29 6.49187 29 14.5ZM4.33589 14.5C4.33589 20.1135 8.88652 24.6641 14.5 24.6641C20.1135 24.6641 24.6641 20.1135 24.6641 14.5C24.6641 8.88652 20.1135 4.33589 14.5 4.33589C8.88652 4.33589 4.33589 8.88652 4.33589 14.5Z" fill="url(#paint0_angular_204_3415)"/>
<circle id="Ellipse 1" cx="14.6447" cy="26.8249" r="2.175" fill="#0D5597"/>
</g>
<defs>
<radialGradient id="paint0_angular_204_3415" cx="0" cy="0" r="1" gradientUnits="userSpaceOnUse" gradientTransform="translate(14.5 14.5) rotate(90) scale(14.5)">
<stop stop-color="#0D5597"/>
<stop offset="0.175675" stop-color="#0D5597"/>
<stop offset="1" stop-color="white" stop-opacity="0"/>
</radialGradient>
</defs>
</svg>
