<svg width="25" height="25" viewBox="0 0 25 25" fill="none" xmlns="http://www.w3.org/2000/svg">
<g id="Vector">
<path id="Vector_2" d="M24.8854 23.8256C22.9503 20.3451 19.9124 17.903 16.3824 16.8672C18.0986 15.9592 19.471 14.4761 20.2782 12.6569C21.0855 10.8378 21.2806 8.78867 20.832 6.84001C20.3835 4.89135 19.3175 3.1567 17.8059 1.91579C16.2943 0.674869 14.4252 0 12.5 0C10.5748 0 8.70572 0.674869 7.19412 1.91579C5.68252 3.1567 4.61651 4.89135 4.16797 6.84001C3.71944 8.78867 3.91452 10.8378 4.72177 12.6569C5.52901 14.4761 6.90137 15.9592 8.61756 16.8672C5.08762 17.9017 2.04973 20.3438 0.114626 23.8256C0.0614901 23.9126 0.0258117 24.0098 0.00973669 24.1116C-0.00633829 24.2133 -0.00247746 24.3174 0.0210865 24.4175C0.0446505 24.5176 0.0874307 24.6117 0.146854 24.6942C0.206277 24.7767 0.281115 24.8458 0.366865 24.8974C0.452616 24.949 0.547507 24.982 0.645829 24.9944C0.744152 25.0069 0.843874 24.9985 0.938998 24.9697C1.03412 24.941 1.12268 24.8926 1.19934 24.8273C1.27601 24.762 1.3392 24.6813 1.38511 24.5899C3.73636 20.3617 7.89052 17.838 12.5 17.838C17.1095 17.838 21.2636 20.3617 23.6149 24.5899C23.6608 24.6813 23.724 24.762 23.8007 24.8273C23.8773 24.8926 23.9659 24.941 24.061 24.9697C24.1561 24.9985 24.2558 25.0069 24.3542 24.9944C24.4525 24.982 24.5474 24.949 24.6331 24.8974C24.7189 24.8458 24.7937 24.7767 24.8531 24.6942C24.9126 24.6117 24.9554 24.5176 24.9789 24.4175C25.0025 24.3174 25.0063 24.2133 24.9903 24.1116C24.9742 24.0098 24.9385 23.9126 24.8854 23.8256ZM5.40096 8.92031C5.40096 7.45891 5.81731 6.03034 6.59737 4.81524C7.37742 3.60013 8.48614 2.65307 9.78332 2.09382C11.0805 1.53457 12.5079 1.38825 13.885 1.67335C15.262 1.95845 16.527 2.66218 17.5198 3.69554C18.5126 4.7289 19.1887 6.04548 19.4626 7.4788C19.7366 8.91211 19.596 10.3978 19.0587 11.7479C18.5213 13.0981 17.6114 14.2521 16.444 15.064C15.2766 15.8759 13.9041 16.3092 12.5 16.3092C10.6179 16.3069 8.81356 15.5276 7.48273 14.1425C6.15189 12.7573 5.40323 10.8792 5.40096 8.92031Z" fill="#123E68"/>
</g>
</svg>
