<svg width="50" height="57" viewBox="0 0 50 57" fill="none" xmlns="http://www.w3.org/2000/svg">
<g filter="url(#filter0_d_755_5656)">
<path d="M25.016 4C22.3871 3.99858 19.7836 4.52392 17.3545 5.54597C14.9255 6.56802 12.7184 8.06676 10.8594 9.95648C9.00049 11.8462 7.52617 14.0898 6.52077 16.5591C5.51537 19.0285 4.9986 21.675 5 24.3475C4.99984 28.6522 6.34341 32.846 8.83728 36.325C11.3312 39.8041 14.8467 42.3889 18.8778 43.7075C20.0342 44.1037 21.0722 44.7929 21.894 45.7099C22.7158 46.627 23.2943 47.7417 23.5749 48.949L23.8524 50.0342C23.9045 50.3062 24.0479 50.5513 24.2583 50.7275C24.4686 50.9037 24.7327 51.0001 25.0053 51C25.2761 50.9976 25.5377 50.9001 25.7458 50.7241C25.954 50.5481 26.0959 50.3044 26.1476 50.0342L26.4251 48.949C26.7057 47.7417 27.2842 46.627 28.106 45.7099C28.9278 44.7929 29.9658 44.1037 31.1222 43.7075C35.1533 42.3889 38.6688 39.8041 41.1627 36.325C43.6566 32.846 45.0002 28.6522 45 24.3475C45 18.9566 42.8956 13.7861 39.1488 9.97115C35.402 6.15619 30.319 4.00863 25.016 4Z" fill="#F75751"/>
</g>
<g clip-path="url(#clip0_755_5656)">
<path d="M30.05 33.1585H31.4334C32.1334 33.1585 32.7084 32.6252 32.7917 31.9418L34.1667 18.2085H30V14.8335H28.3584V18.2085H24.2167L24.4667 20.1585C25.8917 20.5502 27.225 21.2585 28.025 22.0418C29.225 23.2252 30.05 24.4502 30.05 26.4502V33.1585ZM15.8334 32.3252V31.5002H28.3584V32.3252C28.3584 32.7835 27.9834 33.1585 27.5167 33.1585H16.675C16.2084 33.1585 15.8334 32.7835 15.8334 32.3252ZM28.3584 26.4918C28.3584 19.8252 15.8334 19.8252 15.8334 26.4918H28.3584ZM15.85 28.1668H28.35V29.8335H15.85V28.1668Z" fill="#FAFAFA"/>
</g>
<defs>
<filter id="filter0_d_755_5656" x="0" y="0" width="50" height="57" filterUnits="userSpaceOnUse" color-interpolation-filters="sRGB">
<feFlood flood-opacity="0" result="BackgroundImageFix"/>
<feColorMatrix in="SourceAlpha" type="matrix" values="0 0 0 0 0 0 0 0 0 0 0 0 0 0 0 0 0 0 127 0" result="hardAlpha"/>
<feOffset dy="1"/>
<feGaussianBlur stdDeviation="2.5"/>
<feComposite in2="hardAlpha" operator="out"/>
<feColorMatrix type="matrix" values="0 0 0 0 0 0 0 0 0 0 0 0 0 0 0 0 0 0 0.1 0"/>
<feBlend mode="normal" in2="BackgroundImageFix" result="effect1_dropShadow_755_5656"/>
<feBlend mode="normal" in="SourceGraphic" in2="effect1_dropShadow_755_5656" result="shape"/>
</filter>
<clipPath id="clip0_755_5656">
<rect width="20" height="20" fill="white" transform="translate(15 14)"/>
</clipPath>
</defs>
</svg>
