<svg width="23" height="21" viewBox="0 0 23 21" fill="none" xmlns="http://www.w3.org/2000/svg">
<g id="Group 122">
<path id="Vector" fill-rule="evenodd" clip-rule="evenodd" d="M14.0553 20.7001H8.9447C5.35555 20.7001 3.5604 20.7 2.27125 19.8548C1.71527 19.4898 1.23659 19.0189 0.8625 18.469C0 17.2041 0 15.4423 0 11.9187C0 8.3939 6.85453e-08 6.6321 0.86135 5.3671C1.23529 4.81701 1.71447 4.34642 2.27125 3.9825C3.09925 3.43855 4.13655 3.2442 5.7247 3.1752C6.48255 3.1752 7.1346 2.6117 7.28295 1.88145C7.39632 1.34655 7.69089 0.867195 8.11687 0.524397C8.54286 0.181599 9.07413 -0.00361653 9.6209 5.35104e-05H13.3791C14.5153 5.35104e-05 15.4939 0.787804 15.717 1.88145C15.8654 2.6117 16.5174 3.1752 17.2753 3.1752C18.8623 3.2442 19.8996 3.4397 20.7287 3.9825C21.2865 4.3482 21.766 4.81855 22.1386 5.3671C23 6.6321 23 8.3939 23 11.9187C23 15.4423 23 17.2041 22.1386 18.4702C21.7641 19.0198 21.285 19.4902 20.7287 19.8548C19.4396 20.7 17.6444 20.7001 14.0553 20.7001ZM15.2605 7.59005C15.2605 7.3613 15.1696 7.14192 15.0079 6.98017C14.8461 6.81842 14.6267 6.72755 14.398 6.72755C14.1693 6.72755 13.9499 6.81842 13.7881 6.98017C13.6264 7.14192 13.5355 7.3613 13.5355 7.59005V7.7545C12.5793 7.27359 11.4831 7.14862 10.4431 7.40195C9.40319 7.65528 8.48731 8.27038 7.85936 9.13719C7.23142 10.004 6.93239 11.066 7.01578 12.1331C7.09917 13.2002 7.55953 14.2028 8.3145 14.9616C8.91387 15.5605 9.66997 15.9783 10.496 16.1669C11.3221 16.3556 12.1846 16.3075 12.9845 16.0282C13.7845 15.7489 14.4895 15.2497 15.0186 14.5879C15.5477 13.9261 15.8795 13.1285 15.9758 12.2867C15.9966 12.062 15.9286 11.8382 15.7864 11.6631C15.6441 11.488 15.4389 11.3756 15.2148 11.35C14.9906 11.3245 14.7654 11.3877 14.5873 11.5263C14.4093 11.6648 14.2926 11.8676 14.2623 12.0912C14.1974 12.6578 13.9598 13.1908 13.5817 13.6178C13.2037 14.0449 12.7034 14.3453 12.1488 14.4785C11.5942 14.6116 11.0121 14.571 10.4814 14.3622C9.95065 14.1533 9.49698 13.7863 9.18188 13.3109C8.86678 12.8355 8.70548 12.2747 8.71986 11.7045C8.73424 11.1343 8.9236 10.5824 9.26227 10.1235C9.60093 9.66455 10.0725 9.32087 10.6131 9.13903C11.1537 8.95718 11.7371 8.94597 12.2843 9.1069C12.0901 9.19508 11.9354 9.35211 11.8502 9.54765C11.7649 9.7432 11.7552 9.96339 11.8228 10.1657C11.8905 10.368 12.0307 10.5381 12.2163 10.6431C12.402 10.7481 12.62 10.7805 12.8282 10.7342L14.5763 10.3662C14.7698 10.3253 14.9434 10.2191 15.068 10.0654C15.1926 9.91172 15.2606 9.71988 15.2605 9.52205V7.59005Z" fill="#525252"/>
</g>
</svg>
