<svg width="17" height="21" viewBox="0 0 17 21" fill="none" xmlns="http://www.w3.org/2000/svg">
<path id="Vector" d="M10.8998 3.9L8.52621 1.5L6.0998 3.9M8.4998 1.5V12.3M4.8998 6.3H3.6998C3.06329 6.3 2.45284 6.55286 2.00275 7.00294C1.55266 7.45303 1.2998 8.06348 1.2998 8.7V17.1C1.2998 17.7365 1.55266 18.347 2.00275 18.7971C2.45284 19.2471 3.06329 19.5 3.6998 19.5H13.2998C13.9363 19.5 14.5468 19.2471 14.9969 18.7971C15.4469 18.347 15.6998 17.7365 15.6998 17.1V8.7C15.6998 8.06348 15.4469 7.45303 14.9969 7.00294C14.5468 6.55286 13.9363 6.3 13.2998 6.3H12.0998" stroke="#525252" stroke-width="1.25" stroke-linecap="round" stroke-linejoin="round"/>
</svg>
