<svg width="50" height="57" viewBox="0 0 50 57" fill="none" xmlns="http://www.w3.org/2000/svg">
<g filter="url(#filter0_d_770_5803)">
<path d="M25.016 4C22.3871 3.99858 19.7836 4.52392 17.3545 5.54597C14.9255 6.56802 12.7184 8.06676 10.8594 9.95648C9.00049 11.8462 7.52617 14.0898 6.52077 16.5591C5.51537 19.0285 4.9986 21.675 5 24.3475C4.99984 28.6522 6.34341 32.846 8.83728 36.325C11.3312 39.8041 14.8467 42.3889 18.8778 43.7075C20.0342 44.1037 21.0722 44.7929 21.894 45.7099C22.7158 46.627 23.2943 47.7417 23.5749 48.949L23.8524 50.0342C23.9045 50.3062 24.0479 50.5513 24.2583 50.7275C24.4686 50.9037 24.7327 51.0001 25.0053 51C25.2761 50.9976 25.5377 50.9001 25.7458 50.7241C25.954 50.5481 26.0959 50.3044 26.1476 50.0342L26.4251 48.949C26.7057 47.7417 27.2842 46.627 28.106 45.7099C28.9278 44.7929 29.9658 44.1037 31.1222 43.7075C35.1533 42.3889 38.6688 39.8041 41.1627 36.325C43.6566 32.846 45.0002 28.6522 45 24.3475C45 18.9566 42.8956 13.7861 39.1488 9.97115C35.402 6.15619 30.319 4.00863 25.016 4Z" fill="#FF5722"/>
</g>
<path d="M32.1633 31.6937C32.9748 31.6937 33.6327 31.0358 33.6327 30.2243C33.6327 29.4128 32.9748 28.7549 32.1633 28.7549C31.3518 28.7549 30.6939 29.4128 30.6939 30.2243C30.6939 31.0358 31.3518 31.6937 32.1633 31.6937Z" fill="#FAFAFA"/>
<path d="M21.5102 31.6937C22.3217 31.6937 22.9796 31.0358 22.9796 30.2243C22.9796 29.4128 22.3217 28.7549 21.5102 28.7549C20.6987 28.7549 20.0408 29.4128 20.0408 30.2243C20.0408 31.0358 20.6987 31.6937 21.5102 31.6937Z" fill="#FAFAFA"/>
<path d="M33.2653 26.9184H21.7934L22.0384 26.5209C22.1435 26.3504 22.1744 26.1444 22.124 25.9504L21.8849 25.0298L32.5317 24.4766C32.9354 24.456 33.2653 24.1082 33.2653 23.7041V18.8367C33.2653 18.4327 32.9347 18.102 32.5306 18.102H20.0845L19.9409 17.5499C19.9 17.3924 19.8079 17.253 19.6792 17.1535C19.5505 17.054 19.3924 17 19.2297 17H16.7347C16.5398 17 16.353 17.0774 16.2152 17.2152C16.0774 17.353 16 17.5398 16 17.7347C16 17.9295 16.0774 18.1164 16.2152 18.2542C16.353 18.392 16.5398 18.4694 16.7347 18.4694H18.6618L20.6234 26.0165L19.852 27.2673C19.7834 27.3786 19.7457 27.5062 19.743 27.637C19.7402 27.7677 19.7724 27.8968 19.8362 28.0109C19.8998 28.1251 19.9927 28.2203 20.1054 28.2865C20.2181 28.3528 20.3465 28.3878 20.4772 28.3878H33.2653C33.4602 28.3878 33.647 28.3103 33.7848 28.1726C33.9226 28.0348 34 27.8479 34 27.6531C34 27.4582 33.9226 27.2713 33.7848 27.1336C33.647 26.9958 33.4602 26.9184 33.2653 26.9184Z" fill="#FAFAFA"/>
<defs>
<filter id="filter0_d_770_5803" x="0" y="0" width="50" height="57" filterUnits="userSpaceOnUse" color-interpolation-filters="sRGB">
<feFlood flood-opacity="0" result="BackgroundImageFix"/>
<feColorMatrix in="SourceAlpha" type="matrix" values="0 0 0 0 0 0 0 0 0 0 0 0 0 0 0 0 0 0 127 0" result="hardAlpha"/>
<feOffset dy="1"/>
<feGaussianBlur stdDeviation="2.5"/>
<feComposite in2="hardAlpha" operator="out"/>
<feColorMatrix type="matrix" values="0 0 0 0 0 0 0 0 0 0 0 0 0 0 0 0 0 0 0.1 0"/>
<feBlend mode="normal" in2="BackgroundImageFix" result="effect1_dropShadow_770_5803"/>
<feBlend mode="normal" in="SourceGraphic" in2="effect1_dropShadow_770_5803" result="shape"/>
</filter>
</defs>
</svg>
