<svg width="15" height="15" viewBox="0 0 15 15" fill="none" xmlns="http://www.w3.org/2000/svg">
<path id="Vector" d="M7.5 13.8929C9.19549 13.8929 10.8215 13.2193 12.0204 12.0204C13.2193 10.8215 13.8929 9.19549 13.8929 7.5C13.8929 5.80451 13.2193 4.17846 12.0204 2.97957C10.8215 1.78067 9.19549 1.10714 7.5 1.10714C5.80451 1.10714 4.17846 1.78067 2.97957 2.97957C1.78067 4.17846 1.10714 5.80451 1.10714 7.5C1.10714 9.19549 1.78067 10.8215 2.97957 12.0204C4.17846 13.2193 5.80451 13.8929 7.5 13.8929ZM12.4497 12.4497C11.137 13.7625 9.35651 14.5 7.5 14.5C5.64349 14.5 3.86301 13.7625 2.55025 12.4497C1.2375 11.137 0.5 9.35651 0.5 7.5C0.5 5.64349 1.2375 3.86301 2.55025 2.55025C3.86301 1.2375 5.64349 0.5 7.5 0.5C9.35651 0.5 11.137 1.2375 12.4497 2.55025C13.7625 3.86301 14.5 5.64349 14.5 7.5C14.5 9.35651 13.7625 11.137 12.4497 12.4497ZM4.51786 8.83929C4.51786 8.75877 4.54984 8.68156 4.60677 8.62463C4.6637 8.5677 4.74092 8.53571 4.82143 8.53571H10.1786C10.2591 8.53571 10.3363 8.5677 10.3932 8.62463C10.4502 8.68156 10.4821 8.75877 10.4821 8.83929C10.4821 9.36604 10.1428 9.914 9.63003 10.3166C9.10688 10.7268 8.37111 11.0179 7.5 11.0179C6.62905 11.0179 5.8934 10.7269 5.37027 10.3168C4.85791 9.9138 4.51786 9.36572 4.51786 8.83929ZM9.64286 6.46429C9.56234 6.46429 9.48513 6.4323 9.4282 6.37537C9.37127 6.31844 9.33929 6.24123 9.33929 6.16071V5.08929C9.33929 5.00877 9.37127 4.93156 9.4282 4.87463C9.48513 4.8177 9.56234 4.78571 9.64286 4.78571C9.72337 4.78571 9.80058 4.8177 9.85751 4.87463C9.91444 4.93156 9.94643 5.00877 9.94643 5.08929V6.16071C9.94643 6.24123 9.91444 6.31844 9.85751 6.37537C9.80058 6.4323 9.72337 6.46429 9.64286 6.46429ZM5.14249 6.37537C5.08555 6.31844 5.05357 6.24123 5.05357 6.16071V5.08929C5.05357 5.00877 5.08555 4.93156 5.14249 4.87463C5.19942 4.8177 5.27663 4.78571 5.35714 4.78571C5.43765 4.78571 5.51487 4.8177 5.5718 4.87463C5.62873 4.93156 5.66071 5.00877 5.66071 5.08929V6.16071C5.66071 6.24123 5.62873 6.31844 5.5718 6.37537C5.51487 6.4323 5.43765 6.46429 5.35714 6.46429C5.27663 6.46429 5.19942 6.4323 5.14249 6.37537Z" stroke="#737373"/>
</svg>
