<svg width="17" height="19" viewBox="0 0 17 19" fill="none" xmlns="http://www.w3.org/2000/svg">
<path id="Vector" d="M7.71988 1.00054L9.76295 5.87191L14.4386 8.00024L9.76237 10.1286L7.7193 15.0005L5.67623 10.1286L1 8.00024L5.67623 5.87191L7.71988 1.00054ZM14.5428 1.59123L13.6249 2.0669L14.5428 2.54318L15 3.50063L15.4572 2.54318L16.3763 2.06751L15.4572 1.59123L15.0006 0.633789L14.5428 1.59123ZM7.71988 4.04728L6.56663 6.79825L3.92528 8.00024L6.56605 9.20222L7.71988 11.9538L8.87372 9.20222L11.5151 8.00085L8.87372 6.79825L7.71988 4.04728ZM13.1665 13.0005L13.9275 14.5922L15.4554 15.385L13.9275 16.1772L13.1665 17.7688L12.4055 16.1772L10.8776 15.3844L12.4055 14.5922L13.1665 13.0005Z" fill="#525252" stroke="#525252" stroke-width="0.5"/>
</svg>
