<svg width="15" height="15" viewBox="0 0 15 15" fill="none" xmlns="http://www.w3.org/2000/svg">
<path id="Vector" d="M8 14H7.5H3C2.46957 14 1.96086 13.7893 1.58579 13.4142C1.21071 13.0391 1 12.5304 1 12V3C1 2.46957 1.21071 1.96086 1.58579 1.58579C1.96086 1.21071 2.46957 1 3 1H12C12.5304 1 13.0391 1.21071 13.4142 1.58579C13.7893 1.96086 14 2.46957 14 3V7.5V8H13.5H10.5C9.59381 8 8.8003 8.48056 8.3625 9.20231L8.26822 9.35775L8.09612 9.41633C7.90156 9.48256 7.69732 9.5159 7.49179 9.51499M8 14L7.494 9.015M8 14V13.5V10.515V10.015H7.5H7.494C6.65723 10.015 6.03629 9.59477 5.63638 9.19228M8 14L5.63638 9.19228M7.49179 9.51499L7.494 9.015M7.49179 9.51499C7.49252 9.51499 7.49326 9.515 7.494 9.515V9.015M7.49179 9.51499C6.83789 9.51426 6.33815 9.18857 5.99044 8.83955M7.494 9.015C7.017 9.015 6.636 8.7795 6.3435 8.4855M5.99044 8.83955C5.99089 8.84 5.99134 8.84044 5.99178 8.84088L6.3435 8.4855M5.99044 8.83955C5.81636 8.66703 5.68686 8.49321 5.6003 8.36285M5.99044 8.83955C5.98998 8.83909 5.98951 8.83862 5.98904 8.83815L6.3435 8.4855M6.3435 8.4855L5.6003 8.36285M5.6003 8.36285C5.60105 8.36394 5.60179 8.36503 5.60253 8.36612L6.015 8.0835L5.59811 8.35955C5.59884 8.36065 5.59957 8.36175 5.6003 8.36285ZM5.6003 8.36285C5.56078 8.30503 5.51998 8.2415 5.48978 8.1811L5.48509 8.17172L5.48519 8.17167C5.45666 8.11148 5.40539 8.06509 5.34265 8.04271C5.27992 8.02032 5.21086 8.02378 5.15067 8.05231C5.09048 8.08084 5.04409 8.13211 5.02171 8.19485C5.00103 8.25279 5.0024 8.31613 5.02521 8.37289M5.6003 8.36285L5.937 7.9575C5.85167 7.77748 5.69832 7.63874 5.51069 7.57179C5.32306 7.50484 5.11652 7.51517 4.9365 7.6005C4.75648 7.68583 4.61774 7.83918 4.55079 8.02681C4.48384 8.21444 4.49417 8.42098 4.5795 8.601M5.02521 8.37289L4.99192 8.30633L4.93461 8.249L4.93311 8.2475L4.5795 8.601M5.02521 8.37289L5.02818 8.37884L5.02968 8.38184L5.039 8.40047L5.03915 8.40083C5.20181 8.69023 5.40269 8.95644 5.63638 9.19228M5.02521 8.37289C5.02604 8.37495 5.02689 8.377 5.02778 8.37904C5.02822 8.38007 5.02867 8.38109 5.02913 8.38211C5.02933 8.38255 5.02952 8.38298 5.02972 8.38342L5.03634 8.39582L5.63638 9.19228M4.5795 8.601L4.58521 8.5983L4.66563 8.56017L4.80916 8.49213L4.83572 8.47954L4.65074 8.5782L4.5855 8.613L4.76989 8.53924M4.5795 8.601L4.581 8.6025L4.76989 8.53924M4.76989 8.53924L4.5975 8.6355L4.80221 8.52632L4.76989 8.53924ZM14.5 9.75L14.5 9.75089C14.5001 9.78374 14.4936 9.81628 14.4811 9.84666C14.4686 9.87692 14.4503 9.90444 14.4272 9.92764C14.4272 9.92773 14.4271 9.92781 14.427 9.92789L9.92789 14.427C9.92781 14.4271 9.92773 14.4272 9.92764 14.4272C9.90444 14.4503 9.87692 14.4686 9.84666 14.4811C9.81628 14.4936 9.78374 14.5001 9.75089 14.5H9.75H3C2.33696 14.5 1.70107 14.2366 1.23223 13.7678C0.763392 13.2989 0.5 12.663 0.5 12V3C0.5 2.33696 0.763392 1.70107 1.23223 1.23223C1.70107 0.763392 2.33696 0.5 3 0.5H12C12.663 0.5 13.2989 0.763392 13.7678 1.23223C14.2366 1.70107 14.5 2.33696 14.5 3L14.5 9.75ZM14 9V8.5H13.5H10.5C9.96957 8.5 9.46086 8.71071 9.08579 9.08579C8.71071 9.46086 8.5 9.96957 8.5 10.5V13.5V14H9H9.4395H9.64661L9.79305 13.8536L13.8536 9.79305L14 9.64661V9.4395V9ZM5.5 5.25C5.5 5.3163 5.47366 5.37989 5.42678 5.42678C5.37989 5.47366 5.3163 5.5 5.25 5.5C5.1837 5.5 5.12011 5.47366 5.07322 5.42678C5.02634 5.37989 5 5.3163 5 5.25C5 5.1837 5.02634 5.12011 5.07322 5.07322C5.12011 5.02634 5.1837 5 5.25 5C5.3163 5 5.37989 5.02634 5.42678 5.07322C5.47366 5.12011 5.5 5.1837 5.5 5.25ZM9.92678 5.42678C9.87989 5.47366 9.8163 5.5 9.75 5.5C9.6837 5.5 9.62011 5.47366 9.57322 5.42678C9.52634 5.37989 9.5 5.3163 9.5 5.25C9.5 5.1837 9.52634 5.12011 9.57322 5.07322C9.62011 5.02634 9.6837 5 9.75 5C9.8163 5 9.87989 5.02634 9.92678 5.07322C9.97366 5.12011 10 5.1837 10 5.25C10 5.3163 9.97366 5.37989 9.92678 5.42678Z" fill="#737373" stroke="#737373"/>
</svg>
