<svg width="31" height="30" viewBox="0 0 31 30" fill="none" xmlns="http://www.w3.org/2000/svg">
<g id="Group 227">
<path id="Vector" d="M23.72 16.3359C23.16 16.8825 22.84 17.6692 22.92 18.5092C23.04 19.9492 24.36 21.0025 25.8 21.0025H28.3333V22.5892C28.3333 25.3492 26.08 27.6025 23.32 27.6025H9.84C10.2533 27.2559 10.6133 26.8292 10.8933 26.3492C11.3867 25.5492 11.6667 24.6025 11.6667 23.6025C11.6666 22.5978 11.3826 21.6135 10.8474 20.7632C10.3123 19.9128 9.54778 19.231 8.64199 18.7962C7.7362 18.3614 6.72599 18.1914 5.72778 18.3057C4.72958 18.4201 3.78399 18.8142 3 19.4425V13.6159C3 10.8559 5.25333 8.60254 8.01333 8.60254H23.32C26.08 8.60254 28.3333 10.8559 28.3333 13.6159V15.5359H25.64C24.8933 15.5359 24.2133 15.8292 23.72 16.3359Z" stroke="#525252" stroke-width="2" stroke-linecap="round" stroke-linejoin="round"/>
<path id="Vector_2" d="M3 14.8161V8.72274C3 7.13607 3.97333 5.72274 5.45333 5.16274L16.04 1.16274C16.4236 1.01819 16.8365 0.968878 17.2434 1.01904C17.6502 1.0692 18.0388 1.21734 18.3758 1.45074C18.7127 1.68414 18.9881 1.99582 19.1781 2.35904C19.3681 2.72225 19.4671 3.12615 19.4667 3.53607V8.60274M9 14.2694H18.3333M29.7453 16.8961V19.6427C29.7453 20.3761 29.1587 20.9761 28.412 21.0027H25.7987C24.3587 21.0027 23.0387 19.9494 22.9187 18.5094C22.8387 17.6694 23.1587 16.8827 23.7187 16.3361C24.212 15.8294 24.892 15.5361 25.6387 15.5361H28.412C29.1587 15.5627 29.7453 16.1627 29.7453 16.8961Z" stroke="#525252" stroke-width="2" stroke-linecap="round" stroke-linejoin="round"/>
<path id="Vector_3" d="M8.32268 23.5763H4.34934M6.33334 21.6296V25.6163M11.6667 23.6029C11.6667 24.6029 11.3867 25.5496 10.8933 26.3496C10.6133 26.8296 10.2533 27.2563 9.84001 27.6029C8.90668 28.4429 7.68001 28.9363 6.33334 28.9363C5.4141 28.9382 4.51019 28.7007 3.71063 28.2471C2.91106 27.7935 2.24339 27.1396 1.77334 26.3496C1.2658 25.5235 0.998041 24.5725 1.00001 23.6029C1.00001 21.9229 1.77334 20.4163 3.00001 19.4429C3.78401 18.8146 4.72959 18.4205 5.7278 18.3061C6.726 18.1918 7.73621 18.3618 8.642 18.7966C9.54779 19.2313 10.3123 19.9132 10.8474 20.7636C11.3826 21.6139 11.6666 22.5982 11.6667 23.6029Z" stroke="#525252" stroke-width="2" stroke-miterlimit="10" stroke-linecap="round" stroke-linejoin="round"/>
</g>
</svg>
