<svg width="36" height="36" viewBox="0 0 36 36" fill="none" xmlns="http://www.w3.org/2000/svg">
<g id="WalletAdd1-Linear-32px 2">
<path id="Vector" d="M21.3926 23.1569H13.8926M17.6426 19.4969V26.9969" stroke="#262626" stroke-width="2" stroke-miterlimit="10" stroke-linecap="round" stroke-linejoin="round"/>
<path id="Vector_2" d="M18.9904 3.77696L18.9454 3.88196L14.5954 13.977H10.3204C9.30043 13.977 8.32543 14.187 7.44043 14.562L10.0654 8.29196L10.1254 8.14196L10.2304 7.90196C10.2604 7.81196 10.2904 7.72196 10.3354 7.64696C12.3004 3.10196 14.5204 2.06696 18.9904 3.77696Z" stroke="#262626" stroke-width="2" stroke-linecap="round" stroke-linejoin="round"/>
<path id="Vector_3" d="M27.0747 14.277C26.3997 14.067 25.6797 13.977 24.9597 13.977H14.5947L18.9447 3.88198L18.9897 3.77698C19.2147 3.85198 19.4247 3.95698 19.6497 4.04698L22.9647 5.44198C24.8097 6.20698 26.0997 7.00198 26.8797 7.96198C27.0297 8.14198 27.1497 8.30698 27.2547 8.50198C27.3897 8.71198 27.4947 8.92198 27.5547 9.14698C27.6147 9.28198 27.6597 9.41698 27.6897 9.53698C28.0947 10.797 27.8547 12.342 27.0747 14.277Z" stroke="#262626" stroke-width="2" stroke-linecap="round" stroke-linejoin="round"/>
<path id="Vector_4" d="M32.2826 21.2971V24.2221C32.2826 24.5221 32.2676 24.8221 32.2526 25.1221C31.9676 30.3571 29.0426 32.9971 23.4926 32.9971H11.7926C11.4326 32.9971 11.0726 32.9671 10.7276 32.9221C5.95758 32.6071 3.40758 30.0571 3.09258 25.2871C3.04758 24.9421 3.01758 24.5821 3.01758 24.2221V21.2971C3.01758 18.2821 4.84758 15.6871 7.45758 14.5621C8.35758 14.1871 9.31758 13.9771 10.3376 13.9771H24.9776C25.7126 13.9771 26.4326 14.0821 27.0926 14.2771C30.0776 15.1921 32.2826 17.9821 32.2826 21.2971Z" stroke="#262626" stroke-width="2" stroke-linecap="round" stroke-linejoin="round"/>
<path id="Vector_5" d="M10.065 8.29199L7.44 14.562C6.12317 15.1285 5.001 16.0681 4.21199 17.265C3.42299 18.4618 3.00166 19.8635 3 21.297V16.902C3 12.642 6.03 9.08699 10.065 8.29199ZM32.2785 16.902V21.297C32.2785 17.997 30.0885 15.192 27.0885 14.292C27.8685 12.342 28.0935 10.812 27.7185 9.53699C27.6885 9.40199 27.6435 9.26699 27.5835 9.14699C30.3735 10.587 32.2785 13.542 32.2785 16.902Z" stroke="#262626" stroke-width="2" stroke-linecap="round" stroke-linejoin="round"/>
</g>
</svg>
