<svg width="40" height="40" viewBox="0 0 40 40" fill="none" xmlns="http://www.w3.org/2000/svg">
<path d="M0 13.4167C0 8.67091 0 6.29803 0.938221 4.49188C1.72885 2.96985 2.96985 1.72885 4.49188 0.938221C6.29803 0 8.67091 0 13.4167 0H26.5833C31.3291 0 33.702 0 35.5081 0.938221C37.0301 1.72885 38.2711 2.96985 39.0618 4.49188C40 6.29803 40 8.67091 40 13.4167V26.5833C40 31.3291 40 33.702 39.0618 35.5081C38.2711 37.0301 37.0301 38.2711 35.5081 39.0618C33.702 40 31.3291 40 26.5833 40H13.4167C8.67091 40 6.29803 40 4.49188 39.0618C2.96985 38.2711 1.72885 37.0301 0.938221 35.5081C0 33.702 0 31.3291 0 26.5833V13.4167Z" fill="url(#paint0_linear_284_3983)"/>
<path fill-rule="evenodd" clip-rule="evenodd" d="M21.1615 5.49387C24.7021 5.66787 28.0013 7.12792 30.5212 9.64947C33.209 12.339 34.6885 15.9141 34.687 19.7161C34.6838 27.5618 28.2967 33.9454 20.4506 33.9454H20.4447C18.0619 33.9446 15.7208 33.3471 13.6413 32.2135L6.0943 34.1922L8.11406 26.8185C6.86821 24.6606 6.21264 22.2128 6.21367 19.7048C6.21682 11.8593 12.6033 5.47627 20.4504 5.47627L21.1615 5.49387ZM13.991 29.6375L14.4231 29.8937C16.2399 30.9713 18.3224 31.5415 20.4457 31.5423H20.4505C26.9725 31.5423 32.2807 26.2366 32.2833 19.7153C32.2845 16.5551 31.0549 13.5836 28.8208 11.3481C26.5867 9.11252 23.6158 7.88063 20.4552 7.8796C13.9282 7.8796 8.61998 13.1847 8.61737 19.7056C8.61648 21.9404 9.24205 24.1168 10.4265 25.9998L10.7079 26.4473L9.5125 30.8116L13.991 29.6375ZM27.6228 23.0998C27.5339 22.9514 27.2968 22.8625 26.941 22.6845C26.5853 22.5065 24.8364 21.6464 24.5104 21.5276C24.1843 21.4091 23.9471 21.3499 23.71 21.7057C23.4729 22.0616 22.7912 22.8625 22.5836 23.0998C22.3762 23.3371 22.1686 23.3668 21.813 23.1888C21.4573 23.0109 20.3111 22.6353 18.9523 21.4241C17.8948 20.4813 17.1809 19.317 16.9734 18.961C16.7659 18.6052 16.9513 18.4127 17.1293 18.2354C17.2894 18.0761 17.4851 17.8201 17.663 17.6125C17.8408 17.405 17.9001 17.2566 18.0187 17.0194C18.1373 16.782 18.078 16.5745 17.9891 16.3965C17.9001 16.2185 17.1887 14.4684 16.8923 13.7565C16.6035 13.0632 16.3102 13.1571 16.0919 13.1461C15.8846 13.1359 15.6473 13.1336 15.4102 13.1336C15.173 13.1336 14.7876 13.2225 14.4615 13.5786C14.1355 13.9344 13.2165 14.7947 13.2165 16.5446C13.2165 18.2948 14.4912 19.9853 14.6691 20.2226C14.8469 20.46 17.1774 24.0511 20.7458 25.5913C21.5945 25.9577 22.2571 26.1764 22.7737 26.3403C23.6259 26.6108 24.4013 26.5727 25.0143 26.4811C25.6977 26.3791 27.1189 25.621 27.4153 24.7906C27.7117 23.9599 27.7117 23.2481 27.6228 23.0998Z" fill="white"/>
<defs>
<linearGradient id="paint0_linear_284_3983" x1="20" y1="40" x2="20" y2="0" gradientUnits="userSpaceOnUse">
<stop stop-color="#25CF43"/>
<stop offset="1" stop-color="#61FD7D"/>
</linearGradient>
</defs>
</svg>
